<?xml version="1.0" encoding="UTF-8"?>
<svg width="172px" height="40px" viewBox="0 0 331 76" version="1.1" xmlns="http://www.w3.org/2000/svg" xmlns:xlink="http://www.w3.org/1999/xlink">
  <g stroke="none" stroke-width="1" fill="none" fill-rule="evenodd">
    <path d="M81,19.6 C80.7,20.2 80,20.6 80,20.6 C81.5,20.6 81,19.6 81,19.6 Z M85.3,21 C85.1,18.9 84,18.8 82.9,18.3 C81.8,17.9 79.9,17.3 79.1,16.9 C78.4,16.5 77.6,16.3 76.8,16.2 C75.9,16.1 73.8,16.2 72.8,16 C71.8,15.8 70.3,15.5 69.9,15.8 C69.6,16 69.6,17.2 67.1,18 C65.6,18.5 63.7,18.9 62.2,19.3 C62.2,18.6 62.3,16.4 64.2,13.3 C66.5,9.4 67.1,8.1 66.1,7.1 C65,6 60.4,8.4 60.4,8.4 C60.4,8.4 60.5,8 60.6,7.3 C61.9,6.5 67,3.7 69.1,4.8 C71.5,6.1 68.6,9.9 68.3,10.2 C68,10.5 64.8,15.4 64.1,17.4 L65.5,17 C65.5,17 68.5,12.1 69.6,10.8 C70.6,9.5 73.1,5.8 71.1,4.2 C69.2,2.6 66,3.2 60.7,6.7 C60.8,4.9 60.4,2.3 58,1.4 C53.8,-0.2 40.2,0.9 24.8,13.3 C24.8,13.3 18.8,17.5 13,23.5 C7.5,29.2 2.4,35.1 4.1,35.9 C5.9,36.8 10.5,31.7 11.1,31.1 C11.1,31.1 16,31.4 22.1,26.2 C22.1,26.2 25.4,28.3 30.1,27.1 C30.1,27.1 28.3,31.6 33.7,31.3 C33.7,31.3 33.2,33.5 35.1,33.1 C35.1,33.1 24.4,39.4 24.6,39.6 C24.8,39.9 30.1,37.5 32.7,36.2 C34.3,35.4 35.2,34.7 36.4,34.4 C37.6,34.2 42.1,34 48.3,30.6 C54.5,27.2 56.5,22.8 56.8,19.6 C56.8,19.6 55.2,21 54.8,21 C54.4,21 55.1,19.3 55.2,18.3 C55.4,17.2 56.6,13.2 55.5,13.7 C54.3,14.2 50.6,17.8 49.3,15.5 C48.3,13.8 51,10.6 51,10.6 C51,10.6 42.6,15.3 41,12.9 C39.6,10.8 42,9.1 42,9.1 C42,9.1 32.7,12.7 23.2,19.2 C13.7,25.6 8,33.5 6.1,33.8 C4.3,34.1 21,14.1 39.1,6.8 C48.9,2.9 55.4,2.4 58.1,3.6 C59.6,4.3 59.5,6.3 59.5,6.8 C59.5,6.8 58.1,19.7 60.4,23 C60.4,23 62.3,21.9 64,21.2 C64,21.2 63.2,21.2 63.6,20.5 C63.8,20.1 64.4,19.9 65.3,19.6 C66.5,19.2 68.6,19.1 69.7,18.2 C70.8,17.4 70.7,17.1 71.3,16.9 C71.3,16.9 73.6,17.3 74.7,17.2 C75.9,17.1 77,17 77.7,17.2 C78.4,17.4 80.8,18.7 82.3,19 C83.7,19.3 83.9,19.4 84.4,20.2 C85,21.2 85,22.2 85,22.2 C85,22.2 85,22.2 84.9,22.2 C84.1,21.7 81.8,21.8 81.8,21.8 C82.4,21.9 82.9,22.1 82.1,22.3 C81.3,22.5 78.9,23.3 78.9,23.3 C79.5,22.4 80.9,21.9 81,21.9 C81.1,21.9 78.1,21.9 78.1,21.9 C78.8,21.4 79.1,20.3 79.2,19.8 C79.5,19.8 79.7,19.7 80,19.6 C80.8,19.3 79.9,19.1 78.2,19.1 C76.5,19 75.1,18.8 75.1,18.8 L74.7,19.5 C74.9,19.4 75.6,19.2 76.2,19.3 C76.2,19.6 76.4,20.4 77.2,20.5 C77.6,20.5 77.8,20.5 78.1,20.4 C77.8,21 77.2,21.9 75.8,21.7 C74.8,21.5 74.3,20.6 74.3,20.6 C74.3,20.6 73.3,22.7 72.3,23.2 C71.3,23.7 66.3,26 64.3,28.5 C62.2,31 61.4,31.9 59.8,32.3 C58.2,32.7 58,32.8 57.8,33 C57.6,33.2 55.9,35.9 50.5,38.8 C48.8,39.7 48.1,39.7 47.8,39.4 C47.3,38.9 47.9,38.2 47.6,38.2 C47,38.2 46.6,38.4 45.3,39 C43.5,39.8 42.5,40.4 41.1,40.5 C39.9,40.6 38.7,40.2 38.6,38.4 C38.6,38.4 38.5,38.4 37.7,38.7 C36.8,39 31.8,41.3 29.9,41.4 C28.9,41.4 30.7,39.1 30.7,39.1 C30.7,39.1 25.9,42 24.9,42.4 C23.9,42.9 20.9,44.2 22.1,41.1 C22.1,41.1 15.3,45.4 5,48.6 C1.7,49.6 0.9,49.2 0.9,50 C0.9,50.4 1.3,50.5 1.8,50.6 C2.5,50.6 3.8,50.7 5,50.5 C7.2,50.2 11.4,49.3 14.4,48.3 C19.1,46.8 20.6,45.2 23.8,46.1 C28,47.3 30.1,45.5 30.1,45.5 C30.1,45.5 30.7,46.6 33.3,46.6 C33.3,46.6 35.7,48.4 40,47.7 C40,47.7 41.7,48.6 44.2,48.5 C44.4,49.4 44.6,51 44.5,52.2 C44.3,54.3 44.5,54.9 45.7,53.9 C45.7,53.9 47,57.5 47,58.4 C47.1,59.3 47.1,59.9 47.5,59.9 C48,60 48.3,59.9 48.3,59.9 C48.3,59.9 48.6,60.7 49.8,61 C49.8,61 49.9,61.4 48.1,62.1 C47.2,62.5 46.4,63.3 46.7,63.7 C46.7,63.7 47.4,63.7 48.3,63.7 C48.3,63.7 49.4,62.7 50.6,63.4 C51.2,63.7 51.3,64.2 51.2,64.6 C51.2,64.7 51.1,64.9 51,65.1 C50.9,65.2 50.8,65.4 50.7,65.6 C50.5,66 50.2,66.5 50.3,66.6 C50.5,66.9 51.1,67.8 49.3,68 C49.3,68 49.4,68.3 49.9,68.3 C50.4,68.3 51.8,67.4 51.8,67 C51.8,67 52.4,66.3 52.9,65.3 C53.3,64.3 53.4,64.1 53.5,64.3 C53.6,64.5 54.1,65.6 53.7,66.5 C53.4,67.2 53.2,67.3 53.4,67.6 C53.4,67.6 53.6,67.7 53.8,67.9 C53.9,68 54,68.3 53.5,68.7 C52.8,69.4 54.8,68.6 55,67.9 C55,67.9 55.6,67.2 55.4,64.4 C55.4,64.4 55.4,64.1 55.7,64.3 C56.1,64.5 56.6,65.1 56.6,65.6 C56.6,66.1 56.4,66.6 56.7,66.7 C57.1,66.9 57.1,67.4 56.9,67.7 C56.8,68 56,68.1 56.2,68.2 C56.4,68.3 57.8,68.3 58,66.6 C58.3,65 57.6,63.1 55.6,61.9 C53.7,60.7 53.1,60.2 52.8,53.2 C52.7,50.8 53.4,47.9 53.9,46 C54.5,43.7 55.3,42.4 55.4,42.7 C55.5,43.2 54.8,44.9 54.8,45.8 C54.8,45.8 60.4,42.9 62.1,41.5 C63.8,40.1 64.6,39 64.7,38.9 C64.8,38.8 66.2,37.4 66.7,33.8 L68.8,29.6 C68.8,29.6 69.7,31 70.4,30.2 C71.1,29.3 72.6,26.9 72.8,26.9 C72.8,26.9 73.1,28 73.7,27.7 C74.2,27.4 74.4,26.2 75.7,25.6 C77,25 79.3,24.3 79.3,24.3 C79.3,24.3 84.5,23 84.6,23.4 C84.8,23.8 84.8,24.7 84.8,24.7 C84.8,24.7 85.5,23.1 85.3,21 Z M53.5,60.6 C53.5,60.6 53.8,61.2 54.3,61.5 C54.7,61.8 55.8,62.3 56.3,62.8 C56.5,63 56.7,63.3 56.6,63.4 C56.5,63.5 56.2,63.4 55.7,62.9 C55.1,62.4 54.8,62.7 54.8,63 C54.8,63.3 54.9,64.2 54.8,64.8 C54.7,65.4 54.4,65.5 54.4,64.8 C54.4,64.1 54,62.5 53.4,62.6 C52.9,62.7 52.6,63.1 52.5,63.4 C52.3,63.7 52.1,64.1 52.2,63.8 C52.2,63.8 52.3,63.1 51.9,62.3 C51.5,61.5 51.4,61.4 51,61.4 C50.6,61.3 50.5,61 51.3,60.7 C51.9,60.4 52.3,60.2 53.5,60.6 Z M23.6,46.8 C22.2,46.3 20.2,46.8 18.2,47.7 C16.2,48.6 6.5,51.8 1,51.5 C1,51.5 1.8,52.8 5.2,53.3 C5.2,53.3 4.9,55.2 8.2,54.5 C11.5,53.8 23.5,48.4 26,47 C26,46.9 25,47.3 23.6,46.8 Z M32.2,47.2 C32.1,47.2 30.4,47.3 29.2,46.3 L17.4,52.4 C17.4,52.4 12,54.9 13,55.5 C13,55.5 14.7,56.5 18.5,55 C22.3,53.5 32.9,47.6 32.9,47.6 C32.9,47.6 32.3,47.2 32.2,47.2 Z M37.3,48.3 C37.3,48.3 35.8,48.4 34.6,47.8 C34.6,47.8 28.2,51.9 27,52.5 C25.8,53.2 23.9,53.9 26,54.3 C28.1,54.6 30.3,54.4 33.9,51.3 C37.1,48.6 37.3,48.3 37.3,48.3 Z M57.5,45.2 C56.2,45.9 54.7,46.6 54.7,46.6 C54.7,46.6 54.1,48.8 54.3,52.9 C54.5,58.2 55.1,59.7 56.8,60.7 C59.3,62.1 59.7,64.3 59.7,65 C59.7,65.7 59.6,65.9 59.8,66.1 C60,66.3 60,66.5 59.7,67 C59.4,67.5 58.7,67.6 59,67.6 C59.3,67.6 60.2,67.7 60.6,66.7 C61,65.8 61.5,65.3 60.7,63.2 C60.7,63.2 61.6,63.1 62,64.8 C62.2,65.9 61.9,66.3 62.8,66.6 C62.8,66.6 62.9,67 62.4,67.6 C62,68 62.6,67.9 62.9,67.8 C63.5,67.5 64,66.7 63.9,65.8 C63.8,64.9 63.3,63.7 62.9,63.2 C62.9,63.2 63.6,63.3 63.9,64 C64.3,64.6 64.2,65 65.1,64.9 C65.1,64.9 65.5,65.2 65.5,65.8 C65.5,66.4 64.8,66.8 65,66.8 C65.3,66.8 66.9,66.1 65.7,64 C65.7,64 65.5,63 64.5,62.5 C63.5,62 62.3,60.6 60.1,60.2 C60.1,60.2 59.1,59.1 58.9,58.5 C58.9,58.5 59,58.2 59.1,58 C59.2,57.8 57.7,50.1 61.3,43.2 C61.3,43.1 58.8,44.6 57.5,45.2 Z M59.9,60.7 C61.2,60.7 64,62.6 63.9,62.8 C63.9,63 62.9,62.5 62.6,62.4 C62.3,62.3 61.9,62.2 62.2,62.7 C62.5,63.2 63,64.3 63,64.5 C63,64.7 62.8,64.5 62.8,64.5 C62.4,63.4 61.5,62.5 60.9,62.3 C60.4,62.1 60.2,62.2 60.2,62.6 C60.2,63 60.4,63.7 59.9,62.7 C59.5,61.7 58.5,60.8 58.2,60.6 C57.9,60.4 58,60.2 58,60.2 C58.1,60.1 58.4,60 58.6,60.1 C59.2,60.1 59.9,60.7 59.9,60.7 Z M34.3,65.8 L37,66.9 C36.8,68.5 38.2,69.5 38.2,69.5 C38,70.1 37.5,70.5 37.2,70.7 C37,70.8 36.9,70.8 36.9,70.9 C36.9,70.9 37.1,70.9 37.1,70.8 C39.7,69.8 39.9,67.5 39.8,65.8 C39.7,64.2 38.6,63.4 38.6,63.4 C38.6,63.4 42.9,64 44.5,63.7 C46.1,63.4 44.5,63.3 44.5,63.3 C41.2,63.3 37.6,62 35.8,62.6 C33.3,63.4 33.2,65.8 33.2,66.2 C32.9,68.5 34.2,69.7 34.7,70.2 C34.8,70.3 35,70.4 35,70.4 C35,70.4 34.9,70.2 34.9,70.1 C33.6,67.6 34.3,65.8 34.3,65.8 Z M79.3,69.2 C76.8,69.4 74,68.8 73.9,68.9 C73.9,68.9 73.5,69.1 73.5,69.1 C75.5,70 77.7,69.8 78.2,69.9 C78.7,70 78.1,70.2 78.1,70.2 C75.4,72.4 70.9,71.8 64.2,71.8 C57.6,71.8 50.6,73.7 48.3,74.1 C47.4,74.3 46.6,73.4 46,73.1 C45.1,72.7 44.5,72.4 44.5,72.4 C52.3,70.7 56.7,70.3 65.1,69.7 C70.1,69.4 74.4,70.1 74.9,66.3 C75.1,65.2 74.8,64.2 74.4,63.5 C73.6,62.2 72.3,61.5 71.7,61.2 C71.5,61.1 71.2,61.1 71.1,61.2 C68.5,62.1 65.8,62.3 65.3,62.4 C64.8,62.5 65.1,62.6 65.1,62.6 C67.9,62.8 70.2,62.1 70.9,61.9 C71.1,61.9 71.3,61.8 71.4,61.9 C71.9,62.1 73.2,62.6 73.8,64.4 C74.9,67.4 72.6,68.1 70.6,68.2 C68.6,68.3 60.2,69.2 57,69.4 C53.8,69.6 45.4,70.7 42.4,71.2 C40.1,71.6 37.1,71.8 37.1,71.8 C36.3,71.8 37.6,72.2 40.8,72.7 C44,73.2 44.8,74.4 46.1,75.3 C46.7,75.7 47.8,75.7 48.9,75.6 C50.2,75.5 53,74.7 54.8,74.4 C58.3,73.8 64.3,73.1 72.6,73.4 C77.2,73.5 78.8,72.2 80.3,70.3 C81,68.9 79.3,69.2 79.3,69.2 Z" id="Shape" fill="#FFFFFF" fill-rule="nonzero"></path>
    <path d="M100.4,61.4 L100.4,52 L104,52 L104,61.3 C104,64 105.3,65.4 107.5,65.4 C109.7,65.4 111,64.1 111,61.5 L111,52 L114.6,52 L114.6,61.3 C114.6,66.3 111.8,68.7 107.4,68.7 C103.1,68.7 100.4,66.2 100.4,61.4 Z M121.3,52 L124.6,52 L132.3,62.1 L132.3,52 L135.9,52 L135.9,68.4 L132.8,68.4 L124.9,58 L124.9,68.4 L121.3,68.4 L121.3,52 Z M142.8,52 L146.4,52 L146.4,68.4 L142.8,68.4 L142.8,52 Z M151.6,52 L155.6,52 L159.9,63.6 L164.2,52 L168.1,52 L161.5,68.4 L158.3,68.4 L151.6,52 Z M173.4,52 L185.8,52 L185.8,55.2 L177,55.2 L177,58.5 L184.7,58.5 L184.7,61.7 L177,61.7 L177,65.1 L185.9,65.1 L185.9,68.3 L173.4,68.3 L173.4,52 Z M191.6,52 L199.1,52 C201.2,52 202.8,52.6 203.9,53.7 C204.8,54.6 205.3,55.9 205.3,57.5 C205.3,60.1 203.9,61.8 201.8,62.6 L205.8,68.5 L201.6,68.5 L198.1,63.2 L195.3,63.2 L195.3,68.5 L191.7,68.5 L191.7,52 L191.6,52 Z M198.9,60 C200.7,60 201.7,59.1 201.7,57.7 C201.7,56.2 200.6,55.4 198.9,55.4 L195.3,55.4 L195.3,60 L198.9,60 Z M210.1,66 L212.2,63.4 C213.7,64.6 215.2,65.4 217.1,65.4 C218.6,65.4 219.5,64.8 219.5,63.8 C219.5,62.9 218.9,62.4 216.2,61.7 C212.9,60.9 210.8,59.9 210.8,56.7 C210.8,53.7 213.2,51.8 216.5,51.8 C218.9,51.8 220.9,52.6 222.6,53.9 L220.7,56.6 C219.2,55.6 217.8,55 216.4,55 C215,55 214.3,55.6 214.3,56.4 C214.3,57.5 215,57.8 217.8,58.6 C221.1,59.5 223,60.7 223,63.5 C223,66.8 220.5,68.6 217,68.6 C214.6,68.7 212.1,67.8 210.1,66 Z M228.8,52 L232.4,52 L232.4,68.4 L228.8,68.4 L228.8,52 Z M243.3,55.3 L238.3,55.3 L238.3,52 L251.9,52 L251.9,55.3 L246.9,55.3 L246.9,68.4 L243.3,68.4 L243.3,55.3 Z M261.7,62 L255.4,52.1 L259.6,52.1 L263.5,58.7 L267.5,52.1 L271.6,52.1 L265.3,62 L265.3,68.5 L261.7,68.5 L261.7,62 Z" id="Shape" fill="#FFFFFF" fill-rule="nonzero"></path>
    <polygon id="Path" fill="#E32119" points="100.4 8 107 8 107 32.2 123.2 32.2 120.8 38.2 100.4 38.2"></polygon>
    <path d="M146.3,25.6 L142.3,15.8 L138.3,25.6 L146.3,25.6 Z M139.3,8 L145.4,8 L158.3,38.2 L151.4,38.2 L148.6,31.4 L135.8,31.4 L133,38.2 L126.2,38.2 L139.3,8 Z" id="Shape" fill="#E32119" fill-rule="nonzero"></path>
    <polygon id="Path" fill="#E32119" points="180.3 14.2 170.9 14.2 170.9 8 196.5 8 196.5 14.2 187 14.2 187 38.2 180.3 38.2"></polygon>
    <path d="M217.2,22.7 C218.8,22.7 220.1,22.3 221,21.5 C221.9,20.7 222.3,19.7 222.3,18.4 L222.3,18.3 C222.3,16.9 221.8,15.8 220.9,15.1 C220,14.4 218.7,14 217.1,14 L210.5,14 L210.5,22.7 L217.2,22.7 Z M203.9,8 L217.7,8 C221.5,8 224.5,9 226.5,11.1 C228.2,12.8 229.1,15.1 229.1,18 L229.1,18.1 C229.1,20.5 228.5,22.5 227.3,24.1 C226.1,25.6 224.5,26.8 222.6,27.5 L230,38.3 L222.2,38.3 L215.7,28.6 L215.6,28.6 L210.5,28.6 L210.5,38.3 L203.9,38.3 L203.9,8 Z M251.1,32.6 C252.4,32.6 253.6,32.4 254.8,31.9 C255.9,31.4 256.9,30.7 257.7,29.9 C258.5,29 259.1,28 259.6,26.9 C260,25.8 260.3,24.6 260.3,23.3 L260.3,23.1 C260.3,21.8 260.1,20.6 259.6,19.4 C259.2,18.3 258.5,17.2 257.7,16.4 C256.9,15.5 255.9,14.9 254.8,14.4 C253.7,13.9 252.5,13.7 251.1,13.7 C249.7,13.7 248.5,13.9 247.4,14.4 C246.3,14.9 245.3,15.6 244.6,16.4 C243.8,17.3 243.2,18.3 242.7,19.4 C242.3,20.5 242,21.8 242,23 L242,23.1 C242,24.4 242.2,25.6 242.7,26.8 C243.1,28 243.8,29 244.6,29.8 C245.4,30.7 246.4,31.4 247.5,31.9 C248.5,32.4 249.7,32.6 251.1,32.6 Z M251,38.7 C248.7,38.7 246.5,38.3 244.6,37.5 C242.6,36.7 241,35.6 239.5,34.2 C238.1,32.8 237,31.2 236.2,29.3 C235.4,27.4 235,25.4 235,23.2 L235,23.1 C235,20.9 235.4,18.9 236.2,17 C237,15.1 238.1,13.5 239.5,12 C240.9,10.6 242.6,9.5 244.6,8.6 C246.6,7.8 248.7,7.4 251.1,7.4 C253.4,7.4 255.6,7.8 257.5,8.6 C259.5,9.4 261.2,10.5 262.6,11.9 C264,13.3 265.1,14.9 265.9,16.8 C266.7,18.7 267.1,20.7 267.1,22.9 L267.1,23 C267.1,25.2 266.7,27.2 265.9,29.1 C265.1,31 264,32.7 262.6,34.1 C261.2,35.5 259.5,36.6 257.5,37.5 C255.5,38.3 253.3,38.7 251,38.7 Z M288.7,32.4 C290.2,32.4 291.3,32.1 292.2,31.6 C293,31.1 293.5,30.2 293.5,29.1 L293.5,29 C293.5,28 293.1,27.2 292.3,26.6 C291.5,26 290.3,25.7 288.6,25.7 L280.9,25.7 L280.9,32.3 L288.7,32.3 L288.7,32.4 Z M286.9,20.2 C288.4,20.2 289.5,19.9 290.4,19.4 C291.3,18.9 291.7,18.1 291.7,17 C291.7,16 291.3,15.2 290.6,14.7 C289.9,14.2 288.8,13.9 287.4,13.9 L280.9,13.9 L280.9,20.3 C280.8,20.2 286.9,20.2 286.9,20.2 Z M274.3,8 L288.3,8 C291.8,8 294.4,8.9 296.2,10.7 C297.6,12.1 298.3,13.8 298.3,15.8 L298.3,15.9 C298.3,16.8 298.2,17.5 298,18.2 C297.8,18.9 297.5,19.5 297.1,20 C296.7,20.5 296.3,21 295.9,21.4 C295.4,21.8 294.9,22.1 294.4,22.4 C296.1,23.1 297.5,24 298.5,25.1 C299.5,26.2 300,27.8 300,29.8 L300,29.9 C300,31.3 299.7,32.5 299.2,33.5 C298.7,34.5 297.9,35.4 296.9,36.1 C295.9,36.8 294.7,37.3 293.3,37.6 C291.9,38 290.4,38.1 288.7,38.1 L274.4,38.1 L274.3,8 Z" id="Shape" fill="#E32119" fill-rule="nonzero"></path>
    <polygon id="Path" fill="#E32119" points="307.2 8 329.9 8 329.9 13.9 313.7 13.9 313.7 20.1 325.6 20.1 325.6 26 313.7 26 313.7 32.3 330.1 32.3 330.1 38.2 307.2 38.2"></polygon>
  </g>
</svg>
