<?xml version="1.0" encoding="UTF-8"?>
<svg width="38px" height="31px" viewBox="0 0 38 31" version="1.1" xmlns="http://www.w3.org/2000/svg" xmlns:xlink="http://www.w3.org/1999/xlink">
    <defs>
        <polygon id="path-1" points="0 0.317333333 17.9788696 0.317333333 17.9788696 6.97666667 0 6.97666667"></polygon>
    </defs>
    <g id="Page-1" stroke="none" stroke-width="1" fill="none" fill-rule="evenodd">
        <g id="logo-watermelon">
            <g id="Group-5" transform="translate(0.000000, 24.000000)">
                <mask id="mask-2" fill="white">
                    <use xlink:href="#path-1"></use>
                </mask>
                <g id="Clip-2"></g>
                <path d="M3.34643478,2.36055556 C3.18052174,1.75777778 2.88665217,1.47505556 2.42686957,1.47505556 C1.75147826,1.47505556 1.18369565,2.47683333 1.18369565,3.68238889 C1.18369565,4.93772222 1.69278261,5.83255556 2.39713043,5.83255556 C2.85730435,5.83255556 3.16056522,5.56966667 3.34643478,5.00616667 L4.4816087,5.34566667 C4.31569565,5.85161111 4.17834783,6.09466667 3.93417391,6.35755556 C3.55226087,6.74644444 2.96491304,7 2.40691304,7 C1.83952174,7 1.25256522,6.74644444 0.851086957,6.32838889 C0.302869565,5.73533333 0,4.79188889 0,3.61472222 C0,2.53516667 0.253956522,1.69827778 0.772826087,1.09588889 C1.19386957,0.599277778 1.79021739,0.317333333 2.41708696,0.317333333 C2.95552174,0.317333333 3.474,0.521888889 3.86569565,0.891722222 C4.20769565,1.21216667 4.35482609,1.50383333 4.4816087,2.12605556 L3.34643478,2.36055556" id="Fill-1" fill="#FFFFFF" mask="url(#mask-2)"></path>
                <path d="M7.64334783,3.78038889 C7.64334783,5.14227778 8.00608696,5.78394444 8.75973913,5.78394444 C9.513,5.78394444 9.91408696,5.01511111 9.91408696,3.61472222 C9.91408696,2.19527778 9.56191304,1.53338889 8.81804348,1.53338889 C8.01586957,1.53338889 7.64334783,2.25283333 7.64334783,3.78038889 Z M10.521,1.13477778 C10.9514348,1.66016667 11.147087,2.42822222 11.147087,3.53655556 C11.147087,4.87938889 10.8641739,5.81272222 10.2572609,6.40616667 C9.87456522,6.78494444 9.34630435,7 8.77891304,7 C8.14304348,7 7.57486957,6.75616667 7.17417391,6.31866667 C6.65530435,5.74505556 6.43069565,4.95677778 6.43069565,3.68238889 C6.43069565,2.8945 6.5966087,1.98994444 6.822,1.54272222 C7.23247826,0.755611111 7.90786957,0.317333333 8.73978261,0.317333333 C9.45430435,0.317333333 10.1003478,0.619111111 10.521,1.13477778 Z" id="Fill-3" fill="#FFFFFF" mask="url(#mask-2)"></path>
                <path d="M17.9788696,3.34211111 L17.9788696,3.50777778 C17.969087,4.37344444 17.9593043,4.4905 17.8806522,4.8405 C17.6071304,6.20161111 16.7756087,7 15.6404348,7 C15.0237391,7 14.5635652,6.78494444 14.1624783,6.30894444 C13.6044783,5.64783333 13.3016087,4.71372222 13.3016087,3.67305556 C13.3016087,2.61294444 13.6142609,1.62088889 14.1526957,0.979222222 C14.5044783,0.560388889 15.0526957,0.317333333 15.6494348,0.317333333 C16.158913,0.317333333 16.608913,0.483 16.9904348,0.804222222 C17.3621739,1.12505556 17.5288696,1.39766667 17.7147391,2.00005556 L16.5596087,2.30144444 C16.3545652,1.72861111 16.0704783,1.47505556 15.6494348,1.47505556 C14.945087,1.47505556 14.4751304,2.29172222 14.4751304,3.49766667 C14.4751304,4.94783333 14.9255217,5.82283333 15.6596087,5.82283333 C15.9628696,5.82283333 16.2763043,5.64783333 16.4328261,5.38455556 C16.5596087,5.18077778 16.608913,5.01511111 16.6973478,4.58694444 L15.7574348,4.58694444 L15.7574348,3.34211111 L17.9788696,3.34211111" id="Fill-4" fill="#FFFFFF" mask="url(#mask-2)"></path>
            </g>
            <polyline id="Fill-6" fill="#FFFFFF" points="24.9133186 24 24.9133186 25.3440235 22.2852622 25.3440235 22.2852622 26.7610598 24.1941701 26.7610598 24.1941701 28.1348759 22.2852622 28.1348759 22.2852622 29.6568157 25 29.6568157 25 31 21 31 21 24 24.9133186 24"></polyline>
            <polyline id="Fill-7" fill="#FFFFFF" points="29.4124294 24 30.8788842 27.7257523 30.8788842 24 32 24 32 31 30.8788842 31 29.1207627 26.6242657 29.1207627 31 28 31 28 24 29.4124294 24"></polyline>
            <polyline id="Fill-8" fill="#FFFFFF" points="38 24 38 25.3326939 36.6669223 25.3326939 36.6669223 31 35.3718121 31 35.3718121 25.3326939 34 25.3326939 34 24 38 24"></polyline>
            <path d="M37,9.99980011 C37,15.5216183 32.5224179,20 27.0005997,20 C21.4771823,20 17,15.5216183 17,9.99980011 C17,4.47678254 21.4771823,0 27.0005997,0 C32.5224179,0 37,4.47678254 37,9.99980011" id="Fill-9" fill="#FFFFFF"></path>
            <path d="M17,8.75007496 L17,0 L10.8137676,0 C5.39384947,0 1,4.47678254 1,9.99980011 C1,15.5224179 5.39384947,20 10.8137676,20 C12.6018344,20 15.7730338,20 17,20" id="Fill-10" fill="#FFFFFF"></path>
        </g>
    </g>
</svg>
