<?xml version="1.0" encoding="UTF-8"?>
<svg width="100px" height="43px" viewBox="0 0 100 43" version="1.1" xmlns="http://www.w3.org/2000/svg" xmlns:xlink="http://www.w3.org/1999/xlink">
    <defs>
        <path d="M7.71470559,19.7337141 C8.37270559,19.7337141 9.05870559,19.6042141 9.77270559,19.3452141 C10.4867056,19.0862141 11.0747056,18.7607141 11.5367056,18.3687141 C11.7047056,18.2287141 11.7852056,18.0607141 11.7782056,17.8647141 C11.7712056,17.6687141 11.6767056,17.4867141 11.4947056,17.3187141 C11.3547056,17.2067141 11.1867056,17.1542141 10.9907056,17.1612141 C10.7947056,17.1682141 10.6197056,17.2347141 10.4657056,17.3607141 C10.1577056,17.6267141 9.74820559,17.8472141 9.23720559,18.0222141 C8.72620559,18.1972141 8.21870559,18.2847141 7.71470559,18.2847141 C6.87470559,18.2847141 6.13270559,18.0957141 5.48870559,17.7177141 C4.84470559,17.3397141 4.33720559,16.8217141 3.96620559,16.1637141 C3.67765003,15.6519363 3.50131053,15.0808746 3.43718707,14.4505289 L3.43470559,14.4207141 L11.9147056,14.4207141 C12.0939056,14.4207141 12.2462256,14.3781541 12.3716656,14.2930341 L12.4607056,14.2212141 C12.6007056,14.0882141 12.6707056,13.9097141 12.6707056,13.6857141 C12.6707056,12.5937141 12.4537056,11.6207141 12.0197056,10.7667141 C11.5857056,9.91271412 10.9732056,9.24421412 10.1822056,8.76121412 C9.39120559,8.27821412 8.46370559,8.03671412 7.39970559,8.03671412 C6.32170559,8.03671412 5.36970559,8.28871412 4.54370559,8.79271412 C3.71770559,9.29671412 3.07020559,9.98621412 2.60120559,10.8612141 C2.13220559,11.7362141 1.89770559,12.7477141 1.89770559,13.8957141 C1.89770559,15.0297141 2.14620559,16.0377141 2.64320559,16.9197141 C3.14020559,17.8017141 3.82620559,18.4912141 4.70120559,18.9882141 C5.57620559,19.4852141 6.58070559,19.7337141 7.71470559,19.7337141 Z M11.1527056,13.0767141 L3.46570559,13.0767141 L3.47910403,12.9748313 C3.54079153,12.5832688 3.64360403,12.2153313 3.78754153,11.8710188 L3.90320559,11.6172141 C4.23220559,10.9522141 4.69770559,10.4307141 5.29970559,10.0527141 C5.90170559,9.67471412 6.60170559,9.48571412 7.39970559,9.48571412 C8.18370559,9.48571412 8.85920559,9.66771412 9.42620559,10.0317141 C9.99320559,10.3957141 10.4307056,10.8997141 10.7387056,11.5437141 C10.9312056,11.9462141 11.060815,12.3815266 11.1275337,12.8496516 L11.1527056,13.0767141 Z M18.1517056,19.6287141 C18.4317056,19.6287141 18.6592056,19.5552141 18.8342056,19.4082141 C19.0092056,19.2612141 19.0967056,19.0687141 19.0967056,18.8307141 C19.0967056,18.5927141 19.0337056,18.4002141 18.9077056,18.2532141 C18.7817056,18.1062141 18.6137056,18.0327141 18.4037056,18.0327141 L18.4037056,18.0327141 L17.8787056,18.0327141 C17.5007056,18.0327141 17.1892056,17.8437141 16.9442056,17.4657141 C16.6992056,17.0877141 16.5767056,16.5977141 16.5767056,15.9957141 L16.5767056,15.9957141 L16.5767056,4.02571412 C16.5767056,3.78771412 16.5032056,3.59521412 16.3562056,3.44821412 C16.2092056,3.30121412 16.0167056,3.22771412 15.7787056,3.22771412 C15.5407056,3.22771412 15.3482056,3.30121412 15.2012056,3.44821412 C15.0542056,3.59521412 14.9807056,3.78771412 14.9807056,4.02571412 L14.9807056,4.02571412 L14.9807056,15.9957141 C14.9807056,16.7097141 15.1032056,17.3397141 15.3482056,17.8857141 C15.5932056,18.4317141 15.9362056,18.8587141 16.3772056,19.1667141 C16.8182056,19.4747141 17.3187056,19.6287141 17.8787056,19.6287141 L17.8787056,19.6287141 L18.1517056,19.6287141 Z M25.9007056,19.7337141 C26.5587056,19.7337141 27.2447056,19.6042141 27.9587056,19.3452141 C28.6727056,19.0862141 29.2607056,18.7607141 29.7227056,18.3687141 C29.8907056,18.2287141 29.9712056,18.0607141 29.9642056,17.8647141 C29.9572056,17.6687141 29.8627056,17.4867141 29.6807056,17.3187141 C29.5407056,17.2067141 29.3727056,17.1542141 29.1767056,17.1612141 C28.9807056,17.1682141 28.8057056,17.2347141 28.6517056,17.3607141 C28.3437056,17.6267141 27.9342056,17.8472141 27.4232056,18.0222141 C26.9122056,18.1972141 26.4047056,18.2847141 25.9007056,18.2847141 C25.0607056,18.2847141 24.3187056,18.0957141 23.6747056,17.7177141 C23.0307056,17.3397141 22.5232056,16.8217141 22.1522056,16.1637141 C21.86365,15.6519363 21.6873105,15.0808746 21.6231871,14.4505289 L21.6207056,14.4207141 L30.1007056,14.4207141 C30.2799056,14.4207141 30.4322256,14.3781541 30.5576656,14.2930341 L30.6467056,14.2212141 C30.7867056,14.0882141 30.8567056,13.9097141 30.8567056,13.6857141 C30.8567056,12.5937141 30.6397056,11.6207141 30.2057056,10.7667141 C29.7717056,9.91271412 29.1592056,9.24421412 28.3682056,8.76121412 C27.5772056,8.27821412 26.6497056,8.03671412 25.5857056,8.03671412 C24.5077056,8.03671412 23.5557056,8.28871412 22.7297056,8.79271412 C21.9037056,9.29671412 21.2562056,9.98621412 20.7872056,10.8612141 C20.3182056,11.7362141 20.0837056,12.7477141 20.0837056,13.8957141 C20.0837056,15.0297141 20.3322056,16.0377141 20.8292056,16.9197141 C21.3262056,17.8017141 22.0122056,18.4912141 22.8872056,18.9882141 C23.7622056,19.4852141 24.7667056,19.7337141 25.9007056,19.7337141 Z M29.3387056,13.0767141 L21.6517056,13.0767141 L21.665104,12.9748313 C21.7267915,12.5832688 21.829604,12.2153313 21.9735415,11.8710188 L22.0892056,11.6172141 C22.4182056,10.9522141 22.8837056,10.4307141 23.4857056,10.0527141 C24.0877056,9.67471412 24.7877056,9.48571412 25.5857056,9.48571412 C26.3697056,9.48571412 27.0452056,9.66771412 27.6122056,10.0317141 C28.1792056,10.3957141 28.6167056,10.8997141 28.9247056,11.5437141 C29.1172056,11.9462141 29.246815,12.3815266 29.3135337,12.8496516 L29.3387056,13.0767141 Z M37.0937056,19.6287141 C37.4577056,19.6287141 37.7237056,19.4467141 37.8917056,19.0827141 L37.8917056,19.0827141 L42.4907056,9.17071412 C42.5747056,9.00271412 42.5817056,8.82421412 42.5117056,8.63521412 C42.4417056,8.44621412 42.3087056,8.30271412 42.1127056,8.20471412 C41.9167056,8.12071412 41.7172056,8.11021412 41.5142056,8.17321412 C41.3112056,8.23621412 41.1677056,8.36571412 41.0837056,8.56171412 L41.0837056,8.56171412 L37.1007056,17.3047141 L33.0617056,8.56171412 C32.9833056,8.41611412 32.8780256,8.30635412 32.7458656,8.23243412 L32.6417056,8.18371412 C32.4597056,8.11371412 32.2707056,8.12771412 32.0747056,8.22571412 C31.8647056,8.32371412 31.7247056,8.46371412 31.6547056,8.64571412 C31.5847056,8.82771412 31.5917056,9.00971412 31.6757056,9.19171412 L31.6757056,9.19171412 L36.3377056,19.0827141 C36.5057056,19.4467141 36.7577056,19.6287141 37.0937056,19.6287141 Z M49.4207056,19.7337141 C50.4427056,19.7337141 51.3562056,19.4992141 52.1612056,19.0302141 C52.7873167,18.6654363 53.3117982,18.1990289 53.73465,17.6309919 L53.7887056,17.5527141 L53.7887056,18.8307141 C53.7887056,19.0290475 53.8421778,19.1957836 53.9491223,19.3309225 L54.0197056,19.4082141 C54.1737056,19.5552141 54.3697056,19.6287141 54.6077056,19.6287141 C54.8457056,19.6287141 55.0417056,19.5552141 55.1957056,19.4082141 C55.3497056,19.2612141 55.4267056,19.0687141 55.4267056,18.8307141 L55.4267056,18.8307141 L55.4267056,13.8957141 C55.4127056,12.7757141 55.1502056,11.7747141 54.6392056,10.8927141 C54.1282056,10.0107141 53.4352056,9.31421412 52.5602056,8.80321412 C51.6852056,8.29221412 50.6947056,8.03671412 49.5887056,8.03671412 C48.4827056,8.03671412 47.4887056,8.29221412 46.6067056,8.80321412 C45.7247056,9.31421412 45.0282056,10.0107141 44.5172056,10.8927141 C44.0062056,11.7747141 43.7507056,12.7757141 43.7507056,13.8957141 C43.7507056,15.0017141 43.9992056,15.9957141 44.4962056,16.8777141 C44.9932056,17.7597141 45.6687056,18.4562141 46.5227056,18.9672141 C47.3767056,19.4782141 48.3427056,19.7337141 49.4207056,19.7337141 Z M49.5887056,18.2637141 C48.7907056,18.2637141 48.0697056,18.0747141 47.4257056,17.6967141 C46.7817056,17.3187141 46.2707056,16.7972141 45.8927056,16.1322141 C45.5147056,15.4672141 45.3257056,14.7217141 45.3257056,13.8957141 C45.3257056,13.0557141 45.5147056,12.3067141 45.8927056,11.6487141 C46.2707056,10.9907141 46.7817056,10.4692141 47.4257056,10.0842141 C48.0697056,9.69921412 48.7907056,9.50671412 49.5887056,9.50671412 C50.4007056,9.50671412 51.1252056,9.69921412 51.7622056,10.0842141 C52.3992056,10.4692141 52.9032056,10.9907141 53.2742056,11.6487141 C53.6452056,12.3067141 53.8307056,13.0557141 53.8307056,13.8957141 C53.8307056,14.7217141 53.6452056,15.4672141 53.2742056,16.1322141 C52.9032056,16.7972141 52.3992056,17.3187141 51.7622056,17.6967141 C51.1252056,18.0747141 50.4007056,18.2637141 49.5887056,18.2637141 Z M63.5117056,19.6287141 C63.7637056,19.6287141 63.9737056,19.5552141 64.1417056,19.4082141 C64.3097056,19.2612141 64.3937056,19.0687141 64.3937056,18.8307141 C64.3937056,18.5927141 64.3237056,18.3967141 64.1837056,18.2427141 C64.0437056,18.0887141 63.8617056,18.0117141 63.6377056,18.0117141 L63.6377056,18.0117141 L63.0707056,18.0117141 C62.4127056,18.0117141 61.8737056,17.7842141 61.4537056,17.3292141 C61.0337056,16.8742141 60.8237056,16.2897141 60.8237056,15.5757141 L60.8237056,15.5757141 L60.8237056,9.96871412 L63.1967056,9.96871412 C63.3647056,9.96871412 63.5103056,9.92615412 63.6335056,9.84103412 L63.7217056,9.76921412 C63.8617056,9.63621412 63.9317056,9.47171412 63.9317056,9.27571412 C63.9317056,9.06571412 63.8617056,8.89421412 63.7217056,8.76121412 C63.5817056,8.62821412 63.4067056,8.56171412 63.1967056,8.56171412 L63.1967056,8.56171412 L60.8237056,8.56171412 L60.8237056,5.30671412 C60.8237056,5.11631412 60.7744256,4.95279412 60.6758656,4.81615412 L60.5927056,4.71871412 C60.4387056,4.56471412 60.2427056,4.48771412 60.0047056,4.48771412 C59.7667056,4.48771412 59.5742056,4.56471412 59.4272056,4.71871412 C59.2802056,4.87271412 59.2067056,5.06871412 59.2067056,5.30671412 L59.2067056,5.30671412 L59.2067056,8.56171412 L57.8417056,8.56171412 C57.6737056,8.56171412 57.5281056,8.60427412 57.4049056,8.68939412 L57.3167056,8.76121412 C57.1767056,8.89421412 57.1067056,9.06571412 57.1067056,9.27571412 C57.1067056,9.47171412 57.1767056,9.63621412 57.3167056,9.76921412 C57.4567056,9.90221412 57.6317056,9.96871412 57.8417056,9.96871412 L57.8417056,9.96871412 L59.2067056,9.96871412 L59.2067056,15.5757141 C59.2067056,16.2617141 59.3353306,16.8807219 59.5925806,17.4327376 L59.7107056,17.6652141 C60.0467056,18.2742141 60.5052056,18.7537141 61.0862056,19.1037141 C61.6672056,19.4537141 62.3287056,19.6287141 63.0707056,19.6287141 L63.0707056,19.6287141 L63.5117056,19.6287141 Z M72.2267056,19.7337141 C72.8847056,19.7337141 73.5707056,19.6042141 74.2847056,19.3452141 C74.9987056,19.0862141 75.5867056,18.7607141 76.0487056,18.3687141 C76.2167056,18.2287141 76.2972056,18.0607141 76.2902056,17.8647141 C76.2832056,17.6687141 76.1887056,17.4867141 76.0067056,17.3187141 C75.8667056,17.2067141 75.6987056,17.1542141 75.5027056,17.1612141 C75.3067056,17.1682141 75.1317056,17.2347141 74.9777056,17.3607141 C74.6697056,17.6267141 74.2602056,17.8472141 73.7492056,18.0222141 C73.2382056,18.1972141 72.7307056,18.2847141 72.2267056,18.2847141 C71.3867056,18.2847141 70.6447056,18.0957141 70.0007056,17.7177141 C69.3567056,17.3397141 68.8492056,16.8217141 68.4782056,16.1637141 C68.18965,15.6519363 68.0133105,15.0808746 67.9491871,14.4505289 L67.9467056,14.4207141 L76.4267056,14.4207141 C76.6059056,14.4207141 76.7582256,14.3781541 76.8836656,14.2930341 L76.9727056,14.2212141 C77.1127056,14.0882141 77.1827056,13.9097141 77.1827056,13.6857141 C77.1827056,12.5937141 76.9657056,11.6207141 76.5317056,10.7667141 C76.0977056,9.91271412 75.4852056,9.24421412 74.6942056,8.76121412 C73.9032056,8.27821412 72.9757056,8.03671412 71.9117056,8.03671412 C70.8337056,8.03671412 69.8817056,8.28871412 69.0557056,8.79271412 C68.2297056,9.29671412 67.5822056,9.98621412 67.1132056,10.8612141 C66.6442056,11.7362141 66.4097056,12.7477141 66.4097056,13.8957141 C66.4097056,15.0297141 66.6582056,16.0377141 67.1552056,16.9197141 C67.6522056,17.8017141 68.3382056,18.4912141 69.2132056,18.9882141 C70.0882056,19.4852141 71.0927056,19.7337141 72.2267056,19.7337141 Z M75.6647056,13.0767141 L67.9777056,13.0767141 L67.991104,12.9748313 C68.0527915,12.5832688 68.155604,12.2153313 68.2995415,11.8710188 L68.4152056,11.6172141 C68.7442056,10.9522141 69.2097056,10.4307141 69.8117056,10.0527141 C70.4137056,9.67471412 71.1137056,9.48571412 71.9117056,9.48571412 C72.6957056,9.48571412 73.3712056,9.66771412 73.9382056,10.0317141 C74.5052056,10.3957141 74.9427056,10.8997141 75.2507056,11.5437141 C75.4432056,11.9462141 75.572815,12.3815266 75.6395337,12.8496516 L75.6647056,13.0767141 Z" id="path-1"></path>
        <path d="M3.32570559,42.2412118 C3.56370559,42.2412118 3.75620559,42.1677118 3.90320559,42.0207118 C4.05020559,41.8737118 4.12370559,41.6742118 4.12370559,41.4222118 L4.12370559,41.4222118 L4.12370559,35.2482118 C4.58570559,35.9062118 5.19820559,36.4347118 5.96120559,36.8337118 C6.72420559,37.2327118 7.57470559,37.4322118 8.51270559,37.4322118 C9.59070559,37.4322118 10.5567056,37.1767118 11.4107056,36.6657118 C12.2647056,36.1547118 12.9402056,35.4582118 13.4372056,34.5762118 C13.9342056,33.6942118 14.1827056,32.7002118 14.1827056,31.5942118 C14.1827056,30.4742118 13.9272056,29.4732118 13.4162056,28.5912118 C12.9052056,27.7092118 12.2087056,27.0127118 11.3267056,26.5017118 C10.4447056,25.9907118 9.44370559,25.7352118 8.32370559,25.7352118 C7.23170559,25.7352118 6.24820559,25.9872118 5.37320559,26.4912118 C4.49820559,26.9952118 3.80520559,27.6847118 3.29420559,28.5597118 C2.78320559,29.4347118 2.52070559,30.4182118 2.50670559,31.5102118 L2.50670559,31.5102118 L2.50670559,41.4222118 C2.50670559,41.6742118 2.58020559,41.8737118 2.72720559,42.0207118 C2.87420559,42.1677118 3.07370559,42.2412118 3.32570559,42.2412118 Z M8.32370559,35.9622118 C7.52570559,35.9622118 6.80470559,35.7732118 6.16070559,35.3952118 C5.51670559,35.0172118 5.01270559,34.4957118 4.64870559,33.8307118 C4.28470559,33.1657118 4.10270559,32.4202118 4.10270559,31.5942118 C4.10270559,30.7542118 4.28470559,30.0052118 4.64870559,29.3472118 C5.01270559,28.6892118 5.51670559,28.1677118 6.16070559,27.7827118 C6.80470559,27.3977118 7.52570559,27.2052118 8.32370559,27.2052118 C9.13570559,27.2052118 9.86370559,27.3977118 10.5077056,27.7827118 C11.1517056,28.1677118 11.6592056,28.6892118 12.0302056,29.3472118 C12.4012056,30.0052118 12.5867056,30.7542118 12.5867056,31.5942118 C12.5867056,32.4202118 12.4012056,33.1657118 12.0302056,33.8307118 C11.6592056,34.4957118 11.1517056,35.0172118 10.5077056,35.3952118 C9.86370559,35.7732118 9.13570559,35.9622118 8.32370559,35.9622118 Z M22.4147056,37.4322118 C23.4367056,37.4322118 24.3502056,37.1977118 25.1552056,36.7287118 C25.7813167,36.363934 26.3057982,35.8975266 26.72865,35.3294896 L26.7827056,35.2512118 L26.7827056,36.5292118 C26.7827056,36.7275451 26.8361778,36.8942812 26.9431223,37.0294201 L27.0137056,37.1067118 C27.1677056,37.2537118 27.3637056,37.3272118 27.6017056,37.3272118 C27.8397056,37.3272118 28.0357056,37.2537118 28.1897056,37.1067118 C28.3437056,36.9597118 28.4207056,36.7672118 28.4207056,36.5292118 L28.4207056,36.5292118 L28.4207056,31.5942118 C28.4067056,30.4742118 28.1442056,29.4732118 27.6332056,28.5912118 C27.1222056,27.7092118 26.4292056,27.0127118 25.5542056,26.5017118 C24.6792056,25.9907118 23.6887056,25.7352118 22.5827056,25.7352118 C21.4767056,25.7352118 20.4827056,25.9907118 19.6007056,26.5017118 C18.7187056,27.0127118 18.0222056,27.7092118 17.5112056,28.5912118 C17.0002056,29.4732118 16.7447056,30.4742118 16.7447056,31.5942118 C16.7447056,32.7002118 16.9932056,33.6942118 17.4902056,34.5762118 C17.9872056,35.4582118 18.6627056,36.1547118 19.5167056,36.6657118 C20.3707056,37.1767118 21.3367056,37.4322118 22.4147056,37.4322118 Z M22.5827056,35.9622118 C21.7847056,35.9622118 21.0637056,35.7732118 20.4197056,35.3952118 C19.7757056,35.0172118 19.2647056,34.4957118 18.8867056,33.8307118 C18.5087056,33.1657118 18.3197056,32.4202118 18.3197056,31.5942118 C18.3197056,30.7542118 18.5087056,30.0052118 18.8867056,29.3472118 C19.2647056,28.6892118 19.7757056,28.1677118 20.4197056,27.7827118 C21.0637056,27.3977118 21.7847056,27.2052118 22.5827056,27.2052118 C23.3947056,27.2052118 24.1192056,27.3977118 24.7562056,27.7827118 C25.3932056,28.1677118 25.8972056,28.6892118 26.2682056,29.3472118 C26.6392056,30.0052118 26.8247056,30.7542118 26.8247056,31.5942118 C26.8247056,32.4202118 26.6392056,33.1657118 26.2682056,33.8307118 C25.8972056,34.4957118 25.3932056,35.0172118 24.7562056,35.3952118 C24.1192056,35.7732118 23.3947056,35.9622118 22.5827056,35.9622118 Z M32.3687056,37.3272118 C32.6207056,37.3272118 32.8167056,37.2572118 32.9567056,37.1172118 C33.0967056,36.9772118 33.1667056,36.7812118 33.1667056,36.5292118 L33.1667056,36.5292118 L33.1657056,30.2502118 L33.1733167,30.0342488 C33.2041686,29.5381995 33.3430019,29.0971995 33.5898167,28.7112488 L33.7022056,28.5492118 C34.0592056,28.0732118 34.5422056,27.7197118 35.1512056,27.4887118 C35.7602056,27.2577118 36.4567056,27.1772118 37.2407056,27.2472118 C37.4787056,27.2612118 37.6922056,27.2752118 37.8812056,27.2892118 C38.0702056,27.3032118 38.2312056,27.2752118 38.3642056,27.2052118 C38.4972056,27.1352118 38.5917056,26.9952118 38.6477056,26.7852118 C38.7317056,26.4352118 38.5987056,26.1692118 38.2487056,25.9872118 C37.8987056,25.8052118 37.4017056,25.7142118 36.7577056,25.7142118 C35.9457056,25.7142118 35.2072056,25.9102118 34.5422056,26.3022118 C34.0434556,26.5962118 33.6155806,26.9728993 33.2585806,27.4322743 L33.1657056,27.5592118 L33.1667056,26.6382118 C33.1667056,26.4282118 33.1180945,26.2571007 33.0208723,26.1248785 L32.9567056,26.0502118 C32.8167056,25.9102118 32.6207056,25.8402118 32.3687056,25.8402118 C32.1167056,25.8402118 31.9207056,25.9102118 31.7807056,26.0502118 C31.6407056,26.1902118 31.5707056,26.3862118 31.5707056,26.6382118 L31.5707056,26.6382118 L31.5707056,36.5292118 C31.5707056,36.7812118 31.6407056,36.9772118 31.7807056,37.1172118 C31.9207056,37.2572118 32.1167056,37.3272118 32.3687056,37.3272118 Z M46.1237056,37.3272118 C46.3757056,37.3272118 46.5857056,37.2537118 46.7537056,37.1067118 C46.9217056,36.9597118 47.0057056,36.7672118 47.0057056,36.5292118 C47.0057056,36.2912118 46.9357056,36.0952118 46.7957056,35.9412118 C46.6557056,35.7872118 46.4737056,35.7102118 46.2497056,35.7102118 L46.2497056,35.7102118 L45.6827056,35.7102118 C45.0247056,35.7102118 44.4857056,35.4827118 44.0657056,35.0277118 C43.6457056,34.5727118 43.4357056,33.9882118 43.4357056,33.2742118 L43.4357056,33.2742118 L43.4357056,27.6672118 L45.8087056,27.6672118 C45.9767056,27.6672118 46.1223056,27.6246518 46.2455056,27.5395318 L46.3337056,27.4677118 C46.4737056,27.3347118 46.5437056,27.1702118 46.5437056,26.9742118 C46.5437056,26.7642118 46.4737056,26.5927118 46.3337056,26.4597118 C46.1937056,26.3267118 46.0187056,26.2602118 45.8087056,26.2602118 L45.8087056,26.2602118 L43.4357056,26.2602118 L43.4357056,23.0052118 C43.4357056,22.8148118 43.3864256,22.6512918 43.2878656,22.5146518 L43.2047056,22.4172118 C43.0507056,22.2632118 42.8547056,22.1862118 42.6167056,22.1862118 C42.3787056,22.1862118 42.1862056,22.2632118 42.0392056,22.4172118 C41.8922056,22.5712118 41.8187056,22.7672118 41.8187056,23.0052118 L41.8187056,23.0052118 L41.8187056,26.2602118 L40.4537056,26.2602118 C40.2857056,26.2602118 40.1401056,26.3027718 40.0169056,26.3878918 L39.9287056,26.4597118 C39.7887056,26.5927118 39.7187056,26.7642118 39.7187056,26.9742118 C39.7187056,27.1702118 39.7887056,27.3347118 39.9287056,27.4677118 C40.0687056,27.6007118 40.2437056,27.6672118 40.4537056,27.6672118 L40.4537056,27.6672118 L41.8187056,27.6672118 L41.8187056,33.2742118 C41.8187056,33.9602118 41.9473306,34.5792196 42.2045806,35.1312352 L42.3227056,35.3637118 C42.6587056,35.9727118 43.1172056,36.4522118 43.6982056,36.8022118 C44.2792056,37.1522118 44.9407056,37.3272118 45.6827056,37.3272118 L45.6827056,37.3272118 L46.1237056,37.3272118 Z M59.4797056,37.3272118 C59.7037056,37.3272118 59.8927056,37.2502118 60.0467056,37.0962118 C60.2007056,36.9422118 60.2777056,36.7532118 60.2777056,36.5292118 L60.2777056,36.5292118 L60.2777056,31.0692118 C60.2777056,29.9212118 60.0502056,28.9482118 59.5952056,28.1502118 C59.1402056,27.3522118 58.5207056,26.7467118 57.7367056,26.3337118 C56.9527056,25.9207118 56.0637056,25.7142118 55.0697056,25.7142118 C54.1597056,25.7142118 53.3337056,25.9137118 52.5917056,26.3127118 C52.0970389,26.5787118 51.6677056,26.9100451 51.3037056,27.3067118 L51.2477056,27.3722118 L51.2477056,26.6592118 C51.2477056,26.4492118 51.1966639,26.2756701 51.0945806,26.1385868 L51.0272056,26.0607118 C50.8802056,25.9137118 50.6877056,25.8402118 50.4497056,25.8402118 C50.1977056,25.8402118 49.9982056,25.9137118 49.8512056,26.0607118 C49.7042056,26.2077118 49.6307056,26.4072118 49.6307056,26.6592118 L49.6307056,26.6592118 L49.6307056,36.5292118 C49.6307056,36.7672118 49.7042056,36.9597118 49.8512056,37.1067118 C49.9982056,37.2537118 50.1977056,37.3272118 50.4497056,37.3272118 C50.6877056,37.3272118 50.8802056,37.2537118 51.0272056,37.1067118 C51.1742056,36.9597118 51.2477056,36.7672118 51.2477056,36.5292118 L51.2477056,36.5292118 L51.2477056,30.3132118 L51.2552525,30.0956649 C51.28544,29.6664774 51.40619,29.2727274 51.6175025,28.9144149 L51.7307056,28.7382118 C52.0527056,28.2762118 52.4902056,27.9122118 53.0432056,27.6462118 C53.5962056,27.3802118 54.2157056,27.2472118 54.9017056,27.2472118 C55.6157056,27.2472118 56.2562056,27.3872118 56.8232056,27.6672118 C57.3902056,27.9472118 57.8382056,28.3672118 58.1672056,28.9272118 C58.4962056,29.4872118 58.6607056,30.2012118 58.6607056,31.0692118 L58.6607056,31.0692118 L58.6607056,36.5292118 C58.6607056,36.7532118 58.7377056,36.9422118 58.8917056,37.0962118 C59.0457056,37.2502118 59.2417056,37.3272118 59.4797056,37.3272118 Z M69.0557056,37.4322118 C69.7137056,37.4322118 70.3997056,37.3027118 71.1137056,37.0437118 C71.8277056,36.7847118 72.4157056,36.4592118 72.8777056,36.0672118 C73.0457056,35.9272118 73.1262056,35.7592118 73.1192056,35.5632118 C73.1122056,35.3672118 73.0177056,35.1852118 72.8357056,35.0172118 C72.6957056,34.9052118 72.5277056,34.8527118 72.3317056,34.8597118 C72.1357056,34.8667118 71.9607056,34.9332118 71.8067056,35.0592118 C71.4987056,35.3252118 71.0892056,35.5457118 70.5782056,35.7207118 C70.0672056,35.8957118 69.5597056,35.9832118 69.0557056,35.9832118 C68.2157056,35.9832118 67.4737056,35.7942118 66.8297056,35.4162118 C66.1857056,35.0382118 65.6782056,34.5202118 65.3072056,33.8622118 C65.01865,33.350434 64.8423105,32.7793723 64.7781871,32.1490266 L64.7757056,32.1192118 L73.2557056,32.1192118 C73.4349056,32.1192118 73.5872256,32.0766518 73.7126656,31.9915318 L73.8017056,31.9197118 C73.9417056,31.7867118 74.0117056,31.6082118 74.0117056,31.3842118 C74.0117056,30.2922118 73.7947056,29.3192118 73.3607056,28.4652118 C72.9267056,27.6112118 72.3142056,26.9427118 71.5232056,26.4597118 C70.7322056,25.9767118 69.8047056,25.7352118 68.7407056,25.7352118 C67.6627056,25.7352118 66.7107056,25.9872118 65.8847056,26.4912118 C65.0587056,26.9952118 64.4112056,27.6847118 63.9422056,28.5597118 C63.4732056,29.4347118 63.2387056,30.4462118 63.2387056,31.5942118 C63.2387056,32.7282118 63.4872056,33.7362118 63.9842056,34.6182118 C64.4812056,35.5002118 65.1672056,36.1897118 66.0422056,36.6867118 C66.9172056,37.1837118 67.9217056,37.4322118 69.0557056,37.4322118 Z M72.4937056,30.7752118 L64.8067056,30.7752118 L64.820104,30.673329 C64.8817915,30.2817665 64.984604,29.913829 65.1285415,29.5695165 L65.2442056,29.3157118 C65.5732056,28.6507118 66.0387056,28.1292118 66.6407056,27.7512118 C67.2427056,27.3732118 67.9427056,27.1842118 68.7407056,27.1842118 C69.5247056,27.1842118 70.2002056,27.3662118 70.7672056,27.7302118 C71.3342056,28.0942118 71.7717056,28.5982118 72.0797056,29.2422118 C72.2722056,29.6447118 72.401815,30.0800243 72.4685337,30.5481493 L72.4937056,30.7752118 Z M77.5397056,37.3272118 C77.7917056,37.3272118 77.9877056,37.2572118 78.1277056,37.1172118 C78.2677056,36.9772118 78.3377056,36.7812118 78.3377056,36.5292118 L78.3377056,36.5292118 L78.3377056,30.2502118 L78.3443167,30.0342488 C78.3751686,29.5381995 78.5140019,29.0971995 78.7608167,28.7112488 L78.8732056,28.5492118 C79.2302056,28.0732118 79.7132056,27.7197118 80.3222056,27.4887118 C80.9312056,27.2577118 81.6277056,27.1772118 82.4117056,27.2472118 C82.6497056,27.2612118 82.8632056,27.2752118 83.0522056,27.2892118 C83.2412056,27.3032118 83.4022056,27.2752118 83.5352056,27.2052118 C83.6682056,27.1352118 83.7627056,26.9952118 83.8187056,26.7852118 C83.9027056,26.4352118 83.7697056,26.1692118 83.4197056,25.9872118 C83.0697056,25.8052118 82.5727056,25.7142118 81.9287056,25.7142118 C81.1167056,25.7142118 80.3782056,25.9102118 79.7132056,26.3022118 C79.2144556,26.5962118 78.7865806,26.9728993 78.4295806,27.4322743 L78.3377056,27.5582118 L78.3377056,26.6382118 C78.3377056,26.4282118 78.2890945,26.2571007 78.1918723,26.1248785 L78.1277056,26.0502118 C77.9877056,25.9102118 77.7917056,25.8402118 77.5397056,25.8402118 C77.2877056,25.8402118 77.0917056,25.9102118 76.9517056,26.0502118 C76.8117056,26.1902118 76.7417056,26.3862118 76.7417056,26.6382118 L76.7417056,26.6382118 L76.7417056,36.5292118 C76.7417056,36.7812118 76.8117056,36.9772118 76.9517056,37.1172118 C77.0917056,37.2572118 77.2877056,37.3272118 77.5397056,37.3272118 Z M90.3707056,37.4322118 C91.2527056,37.4322118 92.0332056,37.2922118 92.7122056,37.0122118 C93.3912056,36.7322118 93.9232056,36.3437118 94.3082056,35.8467118 C94.6932056,35.3497118 94.8857056,34.7722118 94.8857056,34.1142118 C94.8857056,33.5962118 94.7562056,33.1167118 94.4972056,32.6757118 C94.2382056,32.2347118 93.8042056,31.8497118 93.1952056,31.5207118 C92.5862056,31.1917118 91.7567056,30.9432118 90.7067056,30.7752118 C89.9367056,30.6492118 89.3382056,30.4952118 88.9112056,30.3132118 C88.4842056,30.1312118 88.1832056,29.9212118 88.0082056,29.6832118 C87.8332056,29.4452118 87.7457056,29.1652118 87.7457056,28.8432118 C87.7457056,28.3672118 87.9767056,27.9717118 88.4387056,27.6567118 C88.9007056,27.3417118 89.5167056,27.1842118 90.2867056,27.1842118 C90.8887056,27.1842118 91.4207056,27.2787118 91.8827056,27.4677118 C92.3447056,27.6567118 92.7507056,27.9542118 93.1007056,28.3602118 C93.2547056,28.5282118 93.4402056,28.6297118 93.6572056,28.6647118 C93.8742056,28.6997118 94.0667056,28.6682118 94.2347056,28.5702118 C94.4307056,28.4442118 94.5427056,28.2832118 94.5707056,28.0872118 C94.5987056,27.8912118 94.5427056,27.7022118 94.4027056,27.5202118 C93.9827056,26.9742118 93.4332056,26.5402118 92.7542056,26.2182118 C92.0752056,25.8962118 91.2667056,25.7352118 90.3287056,25.7352118 C89.5727056,25.7352118 88.8797056,25.8542118 88.2497056,26.0922118 C87.6197056,26.3302118 87.1157056,26.6872118 86.7377056,27.1632118 C86.3597056,27.6392118 86.1707056,28.2342118 86.1707056,28.9482118 C86.1707056,29.7182118 86.4997056,30.3832118 87.1577056,30.9432118 C87.8157056,31.5032118 88.8517056,31.8952118 90.2657056,32.1192118 C91.3577056,32.3012118 92.1417056,32.5567118 92.6177056,32.8857118 C93.0937056,33.2147118 93.3317056,33.6312118 93.3317056,34.1352118 C93.3177056,34.6392118 93.0797056,35.0697118 92.6177056,35.4267118 C92.1557056,35.7837118 91.4067056,35.9622118 90.3707056,35.9622118 C89.6987056,35.9622118 89.0862056,35.8572118 88.5332056,35.6472118 C87.9802056,35.4372118 87.5357056,35.1362118 87.1997056,34.7442118 C87.0597056,34.5902118 86.8847056,34.4992118 86.6747056,34.4712118 C86.4647056,34.4432118 86.2617056,34.4992118 86.0657056,34.6392118 C85.8837056,34.7932118 85.7787056,34.9752118 85.7507056,35.1852118 C85.7227056,35.3952118 85.7857056,35.5842118 85.9397056,35.7522118 C86.4437056,36.3122118 87.1017056,36.7322118 87.9137056,37.0122118 C88.7257056,37.2922118 89.5447056,37.4322118 90.3707056,37.4322118 Z M98.0567056,37.6632118 C98.4067056,37.6632118 98.6972056,37.5407118 98.9282056,37.2957118 C99.1592056,37.0507118 99.2747056,36.7672118 99.2747056,36.4452118 C99.2747056,36.1092118 99.1557056,35.8187118 98.9177056,35.5737118 C98.6797056,35.3287118 98.3927056,35.2062118 98.0567056,35.2062118 C97.7347056,35.2062118 97.4512056,35.3252118 97.2062056,35.5632118 C96.9612056,35.8012118 96.8387056,36.0952118 96.8387056,36.4452118 C96.8387056,36.7812118 96.9577056,37.0682118 97.1957056,37.3062118 C97.4337056,37.5442118 97.7207056,37.6632118 98.0567056,37.6632118 Z" id="path-2"></path>
    </defs>
    <g id="Page-1" stroke="none" stroke-width="1" fill="none" fill-rule="evenodd">
        <g id="elevate-logo-black-on-transparent" fill="#FFFFFF" fill-rule="nonzero">
            <g id="elevate">
                <use xlink:href="#path-1"></use>
                <use xlink:href="#path-1"></use>
            </g>
            <g id="partners.">
                <use xlink:href="#path-2"></use>
                <use xlink:href="#path-2"></use>
            </g>
        </g>
    </g>
</svg>
