<svg width="156" height="51" viewBox="0 0 156 51" xmlns="http://www.w3.org/2000/svg">
  <path d="M40.26 48.82v1.11L19.754 51l20.506-2.18zm0-32.538v4.122a5.969 5.969 0 0 1-.475 1.03l-4.87 8.799c-1.464 2.655-3.245 6.975-1.82 8.243.831.753 2.613-.079 4.473-1.704.12-1.15.555-2.378 1.109-3.488.514-.911 1.029-1.744 1.583-2.496v11.137a1.474 1.474 0 0 1-.435-.199c-.95-.476-1.544-1.15-1.9-1.982-2.217 2.14-5.226 4.241-8.076 1.824-3.484-2.893-1.188-7.808 2.573-16.21 3.721-8.481 1.98-3.408 4.592-10.82.713-2.021 2.494-.634 3.246 1.744zm0-8.996c-7.6-.159-16.706-.793-26.721 1.981-4.87 1.348-9.58 3.924-11.085 9.195-1.266 4.28.95 8.244 8.037 7.055 6.057-.991 3.642-1.903.95-2.577-6.611-1.664-5.661-6.618.831-9.71 2.652-1.308 5.86-2.02 9.501-2.338a733.658 733.658 0 0 1-7.126 16.527c-5.186.475-9.738 1.15-9.263 2.021.277.555 3.404 1.268 7.64 1.546-.752 1.625-1.425 3.09-2.019 4.24-1.9 3.766-3.404 8.56-8.788 11.653C.95 47.59.079 48.226 0 48.543v.119c.08.198.713.238 2.059-.04 8.709-1.783 11.797-7.847 14.528-13.633l1.9-3.924c2.217-.08 4.513-.277 6.81-.674 3.641-.595 5.264-3.844.989-3.685-1.465.08-3.563.158-5.898.317l5.344-11.177c.831-1.783.713-3.646.198-5.073 2.81 0 5.82.238 8.986.634 1.742.238 3.563.278 5.344.199v-4.32zm0 13.118v-4.122c.357 1.229.436 2.695 0 4.122zm6.255 27.742v1.427l-6.255.357v-1.11l6.255-.674zm0-21.995v3.25c-2.81 1.664-4.275 7.53-3.127 8.005.752.357 1.86-.435 3.127-2.061v4.003c-2.217 2.061-4.553 3.092-6.255 2.577V30.788c1.861-2.576 3.92-4.082 6.255-4.637zm0-18.944c-1.94.118-4.038.118-6.255.079v4.32c2.217-.12 4.394-.476 6.255-.991V7.207zM96.99 44.659c.633.119 1.03.832.871 1.625-.159.792-.831 1.347-1.504 1.228-.674-.118-1.069-.832-.871-1.625.158-.792.83-1.347 1.504-1.228zm-50.474 4.914v-1.427l44.575-4.755c2.376-.278.713 3.765-1.345 3.883l-43.23 2.3zm57.243-7.886c0 .04-.039.04-.039.078 0 .12 0 .199.04.239v-.317zm0-2.1c-2.968-.833-6.69 2.456-4.948 6.142.673 1.427 2.652 1.942 4.948 1.07V45.53c-.475.16-.91.239-1.346.16-1.583-.278-1.86-1.467-1.622-2.339.277-1.229 1.82-2.854 2.77-2.259.12.04.16.119.198.198v-1.704zm0-18.549v3.25c-2.81 1.664-4.275 7.49-3.127 8.006.752.317 1.86-.437 3.127-2.061v4.003c-2.414 2.22-4.948 3.25-6.729 2.378-.91-.476-1.544-1.19-1.9-2.022-1.346 1.348-3.365 2.854-5.186 3.21-1.386.278-3.207-.237-3.326-1.862-.158-2.576.91-4.36 1.742-6.579.158-.397.238-.674.238-.832 0-.16-.04-.278-.12-.357-.079-.08-.197-.12-.395-.08-2.653.199-6.374 7.253-7.205 9.116-.435.99-1.188 1.546-2.256 1.625-.911.08-1.584.08-1.98.04-.356-.08-.554-.238-.554-.476 0-.159.277-.832.87-1.982.832-1.744 2.099-4.993 2.06-7.054 0-.198-.04-.357-.199-.436-.118-.119-.277-.119-.514-.119-3.088.238-6.413 6.816-7.403 8.917-.396.872-.634 1.348-.673 1.387-.158.199-.396.317-.752.397-.317.118-1.346.237-2.098.317-.515.04-.871.04-1.07-.04-.197-.04-.316-.159-.316-.357 0-.079.08-.634.198-1.15-2.058 1.784-4.632 2.973-7.086.952-.515-.475-.91-.99-1.188-1.625-3.483 4.28-8.036 4.915-9.817.12-.515.594-1.03 1.149-1.584 1.624v-4.003c1.069-1.347 2.296-3.328 3.484-5.707-1.307-.911-2.455-.832-3.484-.237v-3.25c1.702-.357 3.563-.238 5.582.396 2.138.673 3.365 1.427 2.613 2.893-1.148 2.26-2.415 6.896-1.425 7.689.712.634 2.612-1.19 4.354-3.29.475-3.17 2.296-7.253 4.513-12.048.04-.119.119-.238.158-.357-5.542.159-9.976-.475-10.372-1.149-.633-1.03 5.86-1.942 12.075-2.616 1.742-3.963 3.048-7.213 4.869-11.573 1.306-3.21 5.027 2.418 2.771 6.897l-2.098 4.121c1.188-.118 2.296-.198 3.167-.277 4.275-.357 2.771 2.735-.831 3.527-1.465.278-2.89.516-4.355.714l-2.85 5.628C63.3 29.4 60.964 34.83 62.39 36.138c1.029.912 3.563-.595 5.858-3.092.674-1.822 1.307-3.804 1.703-5.469.515-2.06 1.306-3.091 2.415-3.17 1.029-.12 1.781-.12 2.217-.04.435.04.673.198.673.436 0 .159-.396 1.07-1.188 2.735-.435.951-.713 1.546-.99 2.14 2.098-2.18 4.672-5.43 8.353-5.747.753-.04 1.386.08 1.861.357.435.317.673.793.712 1.387 0 .396-.198 1.07-.554 1.942-.158.357-.356.753-.554 1.19 2.138-1.983 3.92-5.074 7.482-5.391.95-.04 1.663.08 2.217.396.514.317.791.793.831 1.427 0 .753-.119 2.497-1.662 5.826-.397.872-.91 2.497-.436 2.774.753.397 2.296-1.07 3.483-2.299.16-1.149.555-2.298 1.11-3.368 2.216-4.161 4.829-6.46 7.837-7.134zm0-6.936v2.18c-3.008-.079-5.027-.277-5.225-.555-.277-.475 1.9-1.07 5.225-1.625zM46.832 7.167c-.119.04-.198.04-.317.04v3.408c2.098-.595 3.8-1.427 4.75-2.339 1.188-1.189 2.97-1.664-4.433-1.11zm56.926 34.837c.198.515 1.544.198 1.663-.595.08-.515-.158-.99-.713-1.348-.316-.237-.633-.357-.95-.475v1.704c.04.12 0 .238 0 .397v.317zm0 4.795V45.53c1.07-.395 2.178-1.465 3.286-2.813.04-.159.08-.317.119-.515.198-.634.475-1.19.91-1.705.357-.436.832-.793 1.386-1.07.594-.277 1.148-.435 1.662-.475.16 0 .278.04.357.08.08.039.118.078.158.197 0 .08-.118.278-.395.555-.238.238-.436.476-.594.634-.515.714-.91 1.387-1.148 2.101-.238.753-.594 2.695.91 2.655.633-.04 1.266-.476 1.742-1.268.515-.793.633-1.427.475-2.418-.317-.04-.594-.119-.792-.238a.936.936 0 0 1-.356-.634c-.08-.356 0-.673.197-.912.238-.237.515-.395.911-.395.436-.04.792.118 1.109.395.158.12.277.318.356.516.752 0 1.584-.277 2.494-.713.198-.238.396-.397.634-.397.475-.04.792-.04.99-.04.197.04.316.12.316.2 0 .078-.158.514-.475 1.267-.198.396-.317.674-.436.951.911-.99 2.02-2.457 3.682-2.576.316-.04.594.04.831.159a.77.77 0 0 1 .317.633c0 .16-.04.477-.198.872-.079.16-.158.318-.237.516.91-.872 1.702-2.26 3.286-2.417.395 0 .712.04.95.198.277.158.395.356.395.634.04.357 0 1.149-.633 2.655-.158.357-.396 1.11-.158 1.229.633.356 1.543-.951 2.454-1.269.831-.317-.079.912-.871 1.705-.554.594-1.386 1.188-2.137 1.347-.634.119-1.465-.119-1.505-.872-.119-1.15.317-1.942.673-2.933.04-.198.079-.316.079-.356 0-.12-.04-.159-.04-.198-.04-.04-.118-.04-.197-.04-1.188.08-2.732 3.29-3.088 4.122-.159.436-.515.673-.99.713-.396.04-.713.04-.87 0-.159 0-.278-.08-.278-.198 0-.08.12-.357.357-.911.356-.754.91-2.22.87-3.17 0-.08-.04-.16-.119-.2-.039-.039-.158-.039-.237-.039-1.385.119-2.771 3.052-3.167 4.003-.158.396-.277.634-.277.634a.77.77 0 0 1-.356.198c-.158.04-.594.08-.911.119h-.475c-.119-.04-.158-.08-.158-.159s.079-.634.158-.832c.357-.753 1.029-2.735 1.386-4.28a7.245 7.245 0 0 1-1.782.594c.04.476 0 .951-.079 1.427a6.727 6.727 0 0 1-.712 1.823c-.397.634-.832 1.07-1.307 1.388a3.157 3.157 0 0 1-1.702.475c-.435.04-.871 0-1.188-.08-.831-.198-1.781-.95-2.098-1.783-.04-.04-.04-.118-.079-.158-1.148 1.15-2.296 1.902-3.405 2.338zm26.683-4.914v2.853h-.317c-.634-.119-1.03-.832-.871-1.625.158-.673.633-1.15 1.188-1.228zm0-30.755v3.091c-.397.159-.832.317-1.347.397-1.148.237-2.494.436-3.958.634l-3.247 6.301c-1.345 2.695-3.681 8.164-2.296 9.433 1.03.95 4.157.198 6.73-1.783-.633-3.805 1.307-7.452 4.118-9.552v13.832c-1.03-.278-1.9-.714-2.574-1.348-2.89 2.022-8.709 4.439-11.52 1.942a4.313 4.313 0 0 1-1.187-1.625c-3.445 4.32-8.037 4.954-9.818.16a20.581 20.581 0 0 1-1.584 1.624v-4.003c1.07-1.387 2.297-3.33 3.484-5.707-1.306-.912-2.494-.833-3.484-.238v-3.25c1.703-.396 3.563-.238 5.543.396 2.177.674 3.404 1.427 2.652 2.894-1.187 2.258-2.454 6.856-1.465 7.689.753.594 2.692-1.23 4.434-3.33.475-3.17 2.257-7.213 4.474-12.008.118-.317.277-.595.395-.912-5.62.436-11.797.595-16.033.515v-2.18c4.75-.792 11.956-1.625 17.775-2.219 1.584-3.646 2.85-6.777 4.553-10.899 1.345-3.21 5.067 2.418 2.77 6.896l-1.78 3.488a73.706 73.706 0 0 1 2.85-.238h.515zm0 3.091v-3.09c3.127-.04 2.454 2.06 0 3.09zm0 30.517v-2.853h.316c.673.119 1.069.832.91 1.624-.158.674-.672 1.15-1.226 1.23zm6.293-7.49v1.427c-1.226.713-1.9 3.289-1.385 3.527.317.158.831-.198 1.385-.912v1.784c-1.068.95-2.176 1.387-2.968.99-1.307-.673-1.188-2.377-.476-3.725.99-1.784 2.099-2.814 3.444-3.091zm0-19.42v3.13c-2.018-.475-6.848 4.044-5.62 6.382 1.9-.991 4.394-2.695 5.62-4.122v4.28c-1.345 1.03-2.81 1.903-4.195 2.418 1.148.832 2.613.951 4.195.594v2.933c-2.374.555-4.552.555-6.293.04V19.65c1.86-1.387 4.117-2.14 6.293-1.823zm0 9.67c3.484-2.695 5.86-6.54 2.811-8.6-.91-.595-1.86-.951-2.81-1.07v3.13c.119 0 .198.04.316.12.713.436.436 1.228-.317 2.14v4.28zm12.035 13.356v1.586c-.713.634-1.425.911-1.979.752-.633-.198-1.03-.832-1.267-1.427-1.069 1.19-2.098 2.339-3.207 1.507-.316-.238-.514-.515-.593-.872-1.544 1.823-3.524 2.06-4.315-.04a11.06 11.06 0 0 1-.674.714V41.29c.476-.594.99-1.426 1.545-2.497-.594-.396-1.109-.356-1.545-.118v-1.427c.753-.16 1.545-.08 2.455.198.911.317 1.465.674 1.148 1.308-.514.99-1.069 3.011-.633 3.368.356.318 1.306-.674 2.138-1.664.356-1.427 1.187-3.052 1.979-4.439.198-.357 1.584.317 1.068 1.784-.435 1.149-1.305 3.21-.83 3.447.712.357 2.137-1.98 2.929-3.884.435-.91 1.306.357 1.187.635-.277 1.228-1.069 3.091-.593 3.487.197.16.673-.119 1.187-.634zm0-19.618v4.083c-.83.99-1.702 1.941-2.573 2.734.792.555 1.386 1.268 1.504 1.981.396-.04.713-.158 1.07-.277v2.774c-1.188.159-2.456.159-3.761-.158-.831-.159-1.742-.753-2.494-1.466-1.98 1.267-3.92 2.06-5.78 2.536V30.51c1.346-.357 2.85-1.07 4.354-2.06-.04-.675.277-1.23 1.109-1.547.277-.079.594-.079.99-.039 1.94-1.585 3.84-3.527 5.581-5.628zm0-5.39v2.299c-.356-.832-.316-1.625 0-2.299zm0 26.594v-1.586c.277-.278.554-.594.792-.951.713-1.11 1.148-.04.554.872-.118.198-.752.99-.91 1.189-.159.158-.277.317-.436.476zm7.165-18.588v1.982c-.514 3.289-3.364 6.103-7.165 6.697v-2.774c2.099-.911 3.286-3.606 2.099-7.332a42.059 42.059 0 0 1-2.099 2.894v-4.083a15.93 15.93 0 0 0 1.03-1.268c-.198-.357-.396-.713-.634-1.07-.158-.238-.316-.476-.396-.753v-2.299c.792-1.704 3.167-2.576 4.276-1.942 1.86 1.07 1.544 3.25-.158 4.915 1.82 1.545 2.77 3.29 3.047 5.033z" fill="#FFF" fill-rule="evenodd"/>
</svg>
