<?xml version="1.0" encoding="UTF-8"?>
<svg width="601px" height="105px" viewBox="0 0 601 105" version="1.1" xmlns="http://www.w3.org/2000/svg" xmlns:xlink="http://www.w3.org/1999/xlink">
    <!-- Generator: Sketch 52.6 (67491) - http://www.bohemiancoding.com/sketch -->
    <title>realestate-com-au</title>
    <desc>Created with Sketch.</desc>
    <g id="Page-1" stroke="none" stroke-width="1" fill="none" fill-rule="evenodd">
        <g id="realestate-com-au">
            <path d="M0.9,52.5 C0.7,81.2 23.9,104.6 52.6,104.7 C81.3,104.9 104.7,81.7 104.8,53 C105,24.3 81.8,0.9 53.1,0.8 L52.8,0.8 C24.3,0.8 1,23.9 0.9,52.5" id="Path" fill="#E0031E"></path>
            <path d="M86.9,45.7 L56,15 C55.2,14.1 54.1,13.6 52.8,13.6 C51.5,13.6 50.4,14.1 49.6,15 L18.7,45.7 C17.5,46.9 16.8,48.6 16.8,50.4 C16.8,54.1 19.8,57.1 23.4,57.1 L27.6,57.1 C27.6,57.1 27.6,80.4 27.6,80.5 C27.6,82.9 29.5,84.9 31.9,84.9 L73.5,84.9 C75.9,84.9 77.8,82.9 77.8,80.5 C77.8,80.4 77.8,57.1 77.8,57.1 L82.1,57.1 C85.8,57.1 88.7,54.1 88.7,50.4 C88.8,48.5 88.1,46.9 86.9,45.7 Z M69.8,49 L69.8,76.6 L35.9,76.6 L35.9,49 L27,49 L52.9,23.2 L78.8,49 L69.8,49 Z" id="Shape" fill="#FFFFFF" fill-rule="nonzero"></path>
            <path d="M139.1,41.3 C135.6,41.3 132.9,42.2 130.2,43.6 L130.2,69.5 C130.2,70.2 129.6,70.8 128.9,70.8 L123,70.8 C122.3,70.8 121.7,70.2 121.7,69.5 L121.7,35.8 C121.7,35.1 122.3,34.5 123,34.5 L128.6,34.5 C129.3,34.5 129.9,35.1 129.9,35.8 L129.9,37.1 C133,34.7 136.5,34 139.1,34 C139.8,34 140.4,34.6 140.4,35.3 L140.4,39.9 C140.4,40.7 139.8,41.3 139.1,41.3 Z M171.4,55.7 L150.4,55.7 L150.4,55.9 C150.4,59.6 151.9,64.1 158.1,64.1 C162.8,64.1 167.2,63.7 169.9,63.5 L170.1,63.5 C170.7,63.5 171.3,63.8 171.3,64.5 L171.3,68.7 C171.3,69.7 171.1,70.2 169.9,70.4 C165.7,71.2 163.2,71.5 157.4,71.5 C151,71.5 141.8,68 141.8,55.3 L141.8,50.5 C141.8,40.4 147.4,34.1 157.3,34.1 C167.2,34.1 172.6,40.9 172.6,50.5 L172.6,54.1 C172.7,55.1 172.3,55.7 171.4,55.7 Z M164.1,49.3 C164.1,44.3 161.3,41.4 157.3,41.4 C153.3,41.4 150.4,44.2 150.4,49.3 L150.4,49.6 L164.1,49.6 L164.1,49.3 Z M202.3,70.9 L196.8,70.9 C196.1,70.9 195.5,70.3 195.5,69.6 L195.5,68.6 C192.5,70.4 189.5,71.4 186.4,71.4 C181.1,71.4 175.3,69.3 175.3,60.6 L175.3,60.4 C175.3,53.1 179.8,49.2 191,49.2 L195.1,49.2 L195.1,46.4 C195.1,42.2 193.2,41.2 189.4,41.2 C185.3,41.2 181,41.5 178.9,41.7 L178.6,41.7 C178,41.7 177.5,41.5 177.5,40.6 L177.5,36.5 C177.5,35.8 177.9,35.4 178.7,35.1 C181.3,34.6 185,34.1 189.5,34.1 C198.6,34.1 203.7,38.2 203.7,46.4 L203.7,69.6 C203.6,70.3 203,70.9 202.3,70.9 Z M195.1,54.9 L191,54.9 C185.1,54.9 183.9,56.8 183.9,60.4 L183.9,60.6 C183.9,63.8 185.3,64.6 188.5,64.6 C190.8,64.6 193.2,63.8 195.1,62.8 L195.1,54.9 Z M215.4,70.9 L209.4,70.9 C208.7,70.9 208.1,70.3 208.1,69.6 L208.1,23.2 C208.1,22.5 208.7,21.9 209.4,21.9 L215.4,21.9 C216.1,21.9 216.6,22.5 216.6,23.2 L216.6,69.6 C216.6,70.2 216.1,70.9 215.4,70.9 Z M250,55.7 L229,55.7 L229,55.9 C229,59.6 230.5,64.1 236.7,64.1 C241.4,64.1 245.8,63.7 248.6,63.5 L248.8,63.5 C249.4,63.5 250,63.8 250,64.5 L250,68.7 C250,69.7 249.8,70.2 248.6,70.4 C244.4,71.2 241.9,71.5 236.1,71.5 C229.7,71.5 220.5,68 220.5,55.3 L220.5,50.5 C220.5,40.4 226.1,34.1 235.9,34.1 C245.8,34.1 251.3,40.9 251.3,50.5 L251.3,54.1 C251.3,55.1 250.9,55.7 250,55.7 Z M242.7,49.3 C242.7,44.3 239.9,41.4 235.9,41.4 C231.9,41.4 229,44.2 229,49.3 L229,49.6 L242.7,49.6 L242.7,49.3 Z M267.4,71.4 C264.9,71.4 259.5,71.1 255.8,70.1 C255,69.9 254.6,69.4 254.6,68.6 L254.6,64.7 C254.6,64.2 255.1,63.7 255.7,63.7 L256,63.7 C259.1,64.1 264.9,64.4 266.8,64.4 C270.8,64.4 271.4,63 271.4,61.3 C271.4,60.1 270.6,59.3 268.6,58 L259.8,52.6 C256.6,50.7 254.4,47.5 254.4,43.7 C254.4,37.3 258.5,34 266.7,34 C271.9,34 274.9,34.6 278.2,35.3 C279,35.5 279.3,36 279.3,36.8 L279.3,40.5 C279.3,41.3 278.9,41.7 278.3,41.7 L278,41.7 C276.2,41.4 271,40.9 267.3,40.9 C264.2,40.9 262.9,41.6 262.9,43.6 C262.9,44.6 263.9,45.3 265.5,46.2 L273.9,51.4 C279.3,54.7 280.1,57.9 280.1,61.2 C280,66.9 275.9,71.4 267.4,71.4 Z M303.2,70.9 C301.7,71.2 300.2,71.4 298.8,71.4 C291.5,71.4 288.6,69.8 288.6,61.2 L288.6,41 L282.5,40.1 C281.8,40 281.2,39.5 281.2,38.8 L281.2,35.9 C281.2,35.2 281.8,34.6 282.5,34.6 L288.6,34.6 L288.6,26 C288.6,25.3 289.2,24.9 289.9,24.7 L295.9,23.7 L296.2,23.7 C296.8,23.7 297.2,24 297.2,24.7 L297.2,34.6 L303,34.6 C303.7,34.6 304.3,35.2 304.3,35.9 L304.3,39.7 C304.3,40.4 303.7,41 303,41 L297.2,41 L297.2,61.2 C297.2,64.4 297.4,64.8 299.7,64.8 L303.1,64.8 C303.9,64.8 304.5,65.1 304.5,65.8 L304.5,69.9 C304.5,70.4 304.1,70.8 303.2,70.9 Z M333.6,70.9 L328.1,70.9 C327.4,70.9 326.8,70.3 326.8,69.6 L326.8,68.6 C323.8,70.4 320.8,71.4 317.7,71.4 C312.4,71.4 306.6,69.3 306.6,60.6 L306.6,60.4 C306.6,53.1 311.1,49.2 322.3,49.2 L326.4,49.2 L326.4,46.4 C326.4,42.2 324.5,41.2 320.7,41.2 C316.6,41.2 312.3,41.5 310.2,41.7 L309.9,41.7 C309.3,41.7 308.7,41.5 308.7,40.6 L308.7,36.5 C308.7,35.8 309.1,35.4 309.9,35.1 C312.5,34.6 316.2,34.1 320.7,34.1 C329.9,34.1 334.9,38.2 334.9,46.4 L334.9,69.6 C334.9,70.3 334.3,70.9 333.6,70.9 Z M326.4,54.9 L322.3,54.9 C316.4,54.9 315.2,56.8 315.2,60.4 L315.2,60.6 C315.2,63.8 316.6,64.6 319.8,64.6 C322.1,64.6 324.5,63.8 326.4,62.8 L326.4,54.9 Z M357.9,70.9 C356.3,71.2 354.9,71.4 353.5,71.4 C346.2,71.4 343.2,69.8 343.2,61.2 L343.2,41 L337.1,40.1 C336.4,40 335.8,39.5 335.8,38.8 L335.8,35.9 C335.8,35.2 336.4,34.6 337.1,34.6 L343.2,34.6 L343.2,26 C343.2,25.3 343.8,24.9 344.5,24.7 L350.5,23.7 L350.8,23.7 C351.4,23.7 351.8,24 351.8,24.7 L351.8,34.6 L357.6,34.6 C358.3,34.6 358.9,35.2 358.9,35.9 L358.9,39.7 C358.9,40.4 358.3,41 357.6,41 L351.8,41 L351.8,61.2 C351.8,64.4 352,64.8 354.3,64.8 L357.7,64.8 C358.6,64.8 359.1,65.1 359.1,65.8 L359.1,69.9 C359.1,70.4 358.7,70.8 357.9,70.9 Z M390.9,55.7 L369.9,55.7 L369.9,55.9 C369.9,59.6 371.5,64.1 377.6,64.1 C382.3,64.1 386.7,63.7 389.5,63.5 L389.7,63.5 C390.3,63.5 390.9,63.8 390.9,64.5 L390.9,68.7 C390.9,69.7 390.7,70.2 389.5,70.4 C385.3,71.2 382.8,71.5 377,71.5 C370.5,71.5 361.4,68 361.4,55.3 L361.4,50.5 C361.4,40.4 367,34.1 376.9,34.1 C386.8,34.1 392.2,40.9 392.2,50.5 L392.2,54.1 C392.2,55.1 391.8,55.7 390.9,55.7 Z M383.6,49.3 C383.6,44.3 380.8,41.4 376.8,41.4 C372.8,41.4 369.9,44.2 369.9,49.3 L369.9,49.6 L383.6,49.6 L383.6,49.3 Z M401.7,70.9 L396,70.9 C395.3,70.9 394.7,70.3 394.7,69.6 L394.7,62.3 C394.7,61.6 395.3,61.1 396,61.1 L401.7,61.1 C402.4,61.1 403,61.6 403,62.3 L403,69.6 C403,70.3 402.4,70.9 401.7,70.9 Z M428.3,70.5 C426.8,70.9 423.9,71.3 420,71.3 C411.6,71.3 405.3,66.1 405.3,55.6 L405.3,49.6 C405.3,39.1 411.6,33.9 420,33.9 C423.9,33.9 426.8,34.4 428.3,34.7 C429.4,35 429.6,35.4 429.6,36.4 L429.6,40.6 C429.6,41.2 429.1,41.6 428.4,41.6 L428.2,41.6 C425.6,41.3 424.1,41.1 419.9,41.1 C416.9,41.1 413.7,42.8 413.7,49.5 L413.7,55.5 C413.7,62.2 416.9,63.9 419.9,63.9 C424.1,63.9 425.6,63.8 428.2,63.5 L428.4,63.5 C429.1,63.5 429.6,63.8 429.6,64.4 L429.6,68.6 C429.6,69.9 429.4,70.3 428.3,70.5 Z M448.1,71.4 C438,71.4 432.7,64.5 432.7,55.3 L432.7,50.1 C432.7,40.9 438,34 448.1,34 C458.2,34 463.5,40.8 463.5,50.1 L463.5,55.3 C463.5,64.5 458.2,71.4 448.1,71.4 Z M455,50.1 C455,44.8 452.6,41.4 448.1,41.4 C443.6,41.4 441.2,44.8 441.2,50.1 L441.2,55.3 C441.2,60.6 443.6,64 448.1,64 C452.6,64 455,60.6 455,55.3 L455,50.1 Z M512.2,70.9 L506.3,70.9 C505.6,70.9 505,70.3 505,69.6 L505,47.7 C505,42.7 504,41.4 500.4,41.4 C499.2,41.4 496.7,41.8 494.4,43 C494.6,44.4 494.7,46 494.7,47.7 L494.7,69.6 C494.7,70.3 494.1,70.9 493.4,70.9 L487.5,70.9 C486.8,70.9 486.2,70.3 486.2,69.6 L486.2,47.7 C486.2,42.7 485.4,41.4 481.7,41.4 C480.3,41.4 478.4,42.1 475.8,43.5 L475.8,69.5 C475.8,70.2 475.2,70.8 474.5,70.8 L468.6,70.8 C467.9,70.8 467.3,70.2 467.3,69.5 L467.3,35.8 C467.3,35.1 467.9,34.5 468.6,34.5 L474.2,34.5 C474.9,34.5 475.5,35.1 475.5,35.8 L475.5,37.1 C478.2,35.4 480.9,34 484.7,34 C488.4,34 490.8,35.1 492.2,36.9 C495.5,35.1 498.4,34 502.8,34 C511.6,34 513.5,40 513.5,47.6 L513.5,69.5 C513.5,70.2 512.9,70.9 512.2,70.9 Z M524.2,70.9 L518.5,70.9 C517.8,70.9 517.2,70.3 517.2,69.6 L517.2,62.3 C517.2,61.6 517.8,61.1 518.5,61.1 L524.2,61.1 C524.9,61.1 525.5,61.6 525.5,62.3 L525.5,69.6 C525.5,70.3 524.9,70.9 524.2,70.9 Z M555.5,70.9 L550,70.9 C549.3,70.9 548.7,70.3 548.7,69.6 L548.7,68.6 C545.7,70.4 542.7,71.4 539.6,71.4 C534.2,71.4 528.4,69.3 528.4,60.6 L528.4,60.4 C528.4,53.1 532.9,49.2 544.1,49.2 L548.1,49.2 L548.1,46.4 C548.1,42.2 546.2,41.2 542.4,41.2 C538.3,41.2 534,41.5 531.9,41.7 L531.6,41.7 C531,41.7 530.4,41.5 530.4,40.6 L530.4,36.5 C530.4,35.8 530.8,35.4 531.6,35.1 C534.2,34.6 537.9,34.1 542.4,34.1 C551.5,34.1 556.6,38.2 556.6,46.4 L556.6,69.6 C556.8,70.3 556.2,70.9 555.5,70.9 Z M548.3,54.9 L544.3,54.9 C538.4,54.9 537.1,56.8 537.1,60.4 L537.1,60.6 C537.1,63.8 538.5,64.6 541.7,64.6 C544,64.6 546.4,63.8 548.3,62.8 L548.3,54.9 Z" id="Shape" fill="#FFFFFF" fill-rule="nonzero"></path>
            <path d="M589.5,70.9 L583.6,70.9 C582.9,70.9 582.3,70.3 582.3,69.6 L582.3,68.1 C578.9,70.3 576.3,71.3 572.2,71.3 C569,71.3 566.1,70.5 564.3,68.6 C561.9,66.2 561.1,62.2 561.1,56.9 L561.1,35.9 C561.1,35.2 561.7,34.5 562.4,34.5 L568.3,34.5 C569,34.5 569.6,35.1 569.6,35.9 L569.6,56.9 C569.6,60.1 569.9,62 571.1,63.1 C572,63.9 573.1,64.3 575.1,64.3 C577.5,64.3 580.6,62.7 582.4,61.7 L582.4,35.9 C582.4,35.2 583,34.5 583.7,34.5 L589.6,34.5 C590.3,34.5 590.9,35.1 590.9,35.9 L590.9,69.6 C590.8,70.3 590.2,70.9 589.5,70.9" id="Path" fill="#FFFFFF"></path>
            <path d="M596.9,32.4 C594.6,32.4 592.9,30.6 592.9,28.3 C592.9,26 594.6,24.2 596.9,24.2 C599.2,24.2 600.9,26 600.9,28.3 C600.9,30.6 599.2,32.4 596.9,32.4 Z M596.9,24.9 C594.9,24.9 593.6,26.3 593.6,28.3 C593.6,30.2 594.9,31.7 596.9,31.7 C598.9,31.7 600.2,30.3 600.2,28.3 C600.1,26.3 598.8,24.9 596.9,24.9 Z M597.8,30.4 L597.1,28.8 L596.3,28.8 L596.3,30.4 L595.6,30.4 L595.6,26.1 L597.2,26.1 C598,26.1 598.7,26.6 598.7,27.4 C598.7,28 598.4,28.4 597.9,28.6 L598.7,30.3 L597.8,30.3 L597.8,30.4 Z M597,26.8 L596.2,26.8 L596.2,28.1 L597,28.1 C597.4,28.1 597.7,27.9 597.7,27.4 C597.8,27 597.4,26.8 597,26.8 Z" id="Shape" fill="#FFFFFF" fill-rule="nonzero"></path>
        </g>
    </g>
</svg>