<svg width="42" height="40" xmlns="http://www.w3.org/2000/svg"><path d="M35.412 37.806c0 .19-.153.354-.338.354h-.43v-1.637h.422c.193 0 .347.146.347.335v.948zm.34.746l.05-.044c.212-.14.334-.43.334-.695v-.948c0-.582-.474-1.044-1.062-1.044h-1.076c-.032 0-.064.032-.064.064v4.052c0 .03.031.062.063.062h.59c.032 0 .063-.032.063-.062v-1.075h.417l.455 1.1c.012.012.044.037.063.037h.672c.052 0 .078-.037.058-.088l-.563-1.359zm-6.128.557c0 .138-.123.19-.252.19h-.198c-.13 0-.252-.052-.252-.19v-2.395c0-.147.053-.19.202-.19h.3c.148 0 .2.043.2.19v2.395zm.006-3.287h-.713a.717.717 0 00-.708.696v2.787a.7.7 0 00.708.694h.713a.7.7 0 00.706-.694v-2.787a.716.716 0 00-.707-.696h.001zm-4.97 3.476h-1.176v-3.412c0-.032-.033-.064-.065-.064h-.584c-.032 0-.064.032-.064.064v4.051c0 .031.031.063.064.063h1.825c.031 0 .065-.032.065-.063v-.575c0-.032-.034-.064-.065-.064zm8.465-3.476h-.585c-.032 0-.063.032-.063.064v3.223c0 .138-.123.19-.252.19h-.2c-.128 0-.249-.052-.249-.19v-3.223c0-.032-.033-.064-.065-.064h-.585c-.032 0-.064.032-.064.064v3.419c0 .385.315.694.707.694h.714c.39 0 .706-.31.706-.694v-3.42c0-.03-.031-.063-.064-.063zm8.81.703c.033 0 .065-.033.065-.064v-.575a.07.07 0 00-.064-.064h-2c-.03 0-.064.032-.064.064v4.051c0 .031.033.063.065.063h1.999c.032 0 .064-.032.064-.063v-.575a.068.068 0 00-.064-.064h-1.35v-1.194h1.028c.032 0 .065-.031.065-.064v-.575c0-.03-.032-.062-.064-.062h-1.029v-.879h1.35zm-2.87-.693h-.588c-.015 0-.035.013-.048.027l-.001.002a.04.04 0 00-.01.014l-.001.006v1.61l-.554-1.018-.094-.584c0-.032-.032-.057-.065-.057h-.758c-.032 0-.064.031-.064.063v4.042c0 .031.031.062.064.062h.584c.03 0 .063-.031.063-.062v-2.591c.294.62.766 1.364.824 1.51v1.08c0 .032.031.063.064.063h.585c.031 0 .063-.031.063-.062v-4.043c0-.03-.032-.062-.063-.062h-.001zm-16.914-.01h-1.999c-.032 0-.065.032-.065.064v4.051c0 .031.032.063.065.063h1.998c.033 0 .066-.032.066-.063v-.575c0-.032-.033-.064-.065-.064h-1.35v-1.194h1.028a.068.068 0 00.064-.064v-.575c0-.03-.03-.062-.064-.062h-1.028v-.879h1.35c.032 0 .065-.032.065-.063v-.575c0-.032-.033-.064-.065-.064zm4.586 1.257c0 .178-.16.324-.347.324h-.424v-.879h.424c.192 0 .347.164.347.354v.201zm0 1.884c0 .19-.154.335-.347.335h-.424v-1.194h.432c.185 0 .34.164.34.354v.505h-.001zm-.34-3.141h-1.08c-.032 0-.064.032-.064.064v4.051c0 .031.031.063.064.063h1.08a1.05 1.05 0 001.066-1.043v-.506a.869.869 0 00-.346-.695c.27-.177.346-.48.346-.733v-.215c0-.582-.476-.986-1.065-.986zm-20.798 0H3.774c-.032 0-.065.03-.065.063v.575c0 .03.033.063.065.063h.561v3.414c0 .032.032.063.065.063h.584c.032 0 .064-.031.064-.063v-3.414H5.6c.033 0 .064-.032.064-.062v-.576c0-.032-.032-.063-.064-.063zm-3.536 0H.707a.71.71 0 00-.707.695v2.788c0 .442.373.694.708.694h1.356c.031 0 .064-.031.064-.062v-.576c0-.031-.032-.063-.064-.063h-1.1c-.155 0-.251-.063-.251-.19v-2.395c0-.14.039-.19.2-.19h1.15c.032 0 .064-.032.064-.063v-.575c0-.032-.032-.063-.064-.063zm1.196 0h-.585c-.032 0-.064.031-.064.063v3.413h-.001v.639c0 .032.032.062.065.062h.585c.032 0 .064-.03.064-.062v-4.051c0-.032-.032-.064-.064-.064zm5.05 0h-.648c-.034 0-.066.024-.066.057l-.07.594-.329 1.32-.333-1.32-.084-.595c0-.032-.032-.057-.065-.057h-.648c-.04 0-.065.032-.065.07.045.341.071.612.186 1.024.181.639.585 1.846.644 2.01v1.012c0 .031.032.063.065.063h.583c.032 0 .064-.032.064-.063v-1.012c.058-.165.477-1.34.637-1.998.115-.473.129-.605.186-1.037a.056.056 0 00-.057-.068zm3.089 3.286c0 .138-.121.19-.248.19h-.2c-.128 0-.25-.052-.25-.19v-2.386c0-.145.052-.19.2-.19h.3c.148 0 .198.045.198.19v2.386zm.008-3.274h-.71c-.38 0-.707.32-.707.692v2.777c0 .385.315.694.706.694h.71c.39 0 .705-.308.705-.694v-2.777a.713.713 0 00-.704-.693zm7.869-.002h-.758c-.032 0-.066.025-.066.057l-.093.584-.486 1.32-.485-1.32-.094-.584c0-.032-.033-.057-.065-.057h-.759c-.032 0-.065.031-.065.063v4.042c0 .031.033.062.065.062h.584a.067.067 0 00.063-.062v-2.24c.188.53.391 1.06.429 1.168.011.042.046.063.065.063h.525c.018 0 .053-.021.064-.063.038-.108.242-.638.429-1.169v2.24c0 .032.031.063.063.063h.584c.031 0 .065-.031.065-.062v-4.043c0-.03-.034-.062-.065-.062zm-4.522.001h-1.99c-.033 0-.064.032-.064.063v4.038c0 .031.031.063.063.063h.582c.032 0 .063-.032.063-.063l.002-1.828h1.024c.032 0 .064-.03.064-.063v-.573c0-.031-.032-.063-.064-.063H13.41v-.875h1.345c.032 0 .065-.031.065-.063v-.573c0-.03-.034-.063-.066-.063zm6.248-12.1l6.938-3.954v7.917l6.938 3.95 6.938-3.958V3.958L34.88 0 20.997 7.91 7.122.003.184 3.951v23.741l6.938 3.954 6.941-3.958v-7.909l6.938 3.955z" fill="#FFF" fill-rule="evenodd"/></svg>