<?xml version="1.0" encoding="UTF-8"?>
<svg width="431px" height="431px" viewBox="0 0 431 431" version="1.1" xmlns="http://www.w3.org/2000/svg" xmlns:xlink="http://www.w3.org/1999/xlink">
    <defs>
        <path d="M261.731475,24.5777719 C233.557552,37.0390876 204.4418,60.6994827 178.72321,86.7587169 C132.013723,82.5757149 83.8556578,98.3566191 48.1015723,134.109862 C14.180554,168.032566 -1.76139715,213.11978 0.268973523,257.544257 C20.6148391,233.102236 51.2736049,217.518635 85.5673075,217.518635 C87.5639511,217.520322 89.5471039,217.582717 91.5142363,217.678839 C86.2907536,238.922688 84.9711813,259.095703 84.6659511,269.719735 C113.981536,276.965157 137.05002,300.034485 144.287853,329.346697 C154.922004,329.037251 175.08743,327.72611 196.327063,322.494196 C196.431617,324.460485 196.486424,326.442794 196.486424,328.427633 C196.486424,362.723866 180.914627,393.392749 156.459959,413.73187 C200.886965,415.774045 245.981768,399.822819 279.904473,365.908546 C315.657715,330.15446 331.434403,282.004827 327.245499,235.291124 C353.303047,209.568318 376.974403,180.452566 389.434033,152.275271 C416.435939,91.2385173 413.35244,0.645873727 413.35244,0.645873727 C413.35244,0.645873727 410.238587,0.540476578 404.782387,0.540476578 C380.793996,0.539633401 311.462065,2.57759267 261.731475,24.5777719" id="path-1"></path>
        <linearGradient x1="49.9999249%" y1="99.9999028%" x2="49.9999218%" y2="2.31740217e-05%" id="linearGradient-3">
            <stop stop-color="#FFFFFE" offset="0%"></stop>
            <stop stop-color="#9FA09F" offset="100%"></stop>
        </linearGradient>
        <path d="M412.332196,0.61804888 C299.347295,125.432725 178.885943,211.887898 84.7291894,267.847882 C85.1322281,256.835988 86.5799633,237.740554 91.5142363,217.678839 C89.5471039,217.582717 87.5639511,217.520322 85.5673075,217.518635 C51.2744481,217.518635 20.6148391,233.102236 0.268973523,257.544257 C-1.76139715,213.120623 14.180554,168.032566 48.1015723,134.109862 C83.8556578,98.355776 132.013723,82.576558 178.72321,86.7587169 C204.4418,60.6994827 233.557552,37.0390876 261.731475,24.5777719" id="path-4"></path>
        <linearGradient x1="31.4429564%" y1="19.4367208%" x2="59.71899%" y2="63.0433091%" id="linearGradient-6">
            <stop stop-color="#FFFFFE" offset="0%"></stop>
            <stop stop-color="#FFFFFE" offset="100%"></stop>
        </linearGradient>
        <path d="M37.2603846,83.4605903 C64.3863846,56.5254861 106.310769,44.8582292 106.310769,44.8582292 C106.310769,44.8582292 103.271385,35.9949792 94.0178462,26.8057014 C84.7643077,17.6155833 75.8382308,14.5981458 75.8382308,14.5981458 C75.8382308,14.5981458 64.3863846,56.5254861 37.2603846,83.4605903" id="path-7"></path>
        <linearGradient x1="18.9271107%" y1="36.7855956%" x2="63.057649%" y2="80.729277%" id="linearGradient-9">
            <stop stop-color="#FFFFFE" offset="0%"></stop>
            <stop stop-color="#9FA09F" offset="100%"></stop>
        </linearGradient>
    </defs>
    <g id="Page-1" stroke="none" stroke-width="1" fill="none" fill-rule="evenodd">
        <g id="logo" transform="translate(9.000000, 8.000000)">
            <g id="shadow">
                <mask id="mask-2" fill="white">
                    <use xlink:href="#path-1"></use>
                </mask>
                <g id="Clip-162"></g>
                <path d="M261.731475,24.5777719 C233.557552,37.0390876 204.4418,60.6994827 178.72321,86.7587169 C132.013723,82.5757149 83.8556578,98.3566191 48.1015723,134.109862 C14.180554,168.032566 -1.76139715,213.11978 0.268973523,257.544257 C20.6148391,233.102236 51.2736049,217.518635 85.5673075,217.518635 C87.5639511,217.520322 89.5471039,217.582717 91.5142363,217.678839 C86.2907536,238.922688 84.9711813,259.095703 84.6659511,269.719735 C113.981536,276.965157 137.05002,300.034485 144.287853,329.346697 C154.922004,329.037251 175.08743,327.72611 196.327063,322.494196 C196.431617,324.460485 196.486424,326.442794 196.486424,328.427633 C196.486424,362.723866 180.914627,393.392749 156.459959,413.73187 C200.886965,415.774045 245.981768,399.822819 279.904473,365.908546 C315.657715,330.15446 331.434403,282.004827 327.245499,235.291124 C353.303047,209.568318 376.974403,180.452566 389.434033,152.275271 C416.435939,91.2385173 413.35244,0.645873727 413.35244,0.645873727 C413.35244,0.645873727 410.238587,0.540476578 404.782387,0.540476578 C380.793996,0.539633401 311.462065,2.57759267 261.731475,24.5777719" id="Fill-161" fill="url(#linearGradient-3)" mask="url(#mask-2)"></path>
            </g>
            <g id="rocket">
                <path d="M413.351934,0.645536456 C413.351934,0.645536456 369.840618,-0.826650916 322.811567,7.25773198 C325.04683,17.117846 332.188541,40.08262 352.962741,60.8559764 C373.010121,80.9033572 395.844203,89.0029173 406.62591,91.9034468 C414.845201,44.6003633 413.351934,0.645536456 413.351934,0.645536456" id="nose" fill="#000000"></path>
                <g id="portal" transform="translate(247.000000, 68.000000)">
                    <path d="M75.1749788,75.2306873 C68.3188093,82.0969246 59.1898347,85.8689924 49.4853178,85.8689924 C39.774928,85.8689924 30.6526653,82.0893737 23.7914619,75.2306873 C9.61936017,61.0611025 9.61936017,38.0083653 23.7914619,23.8396195 C30.6576992,16.9649924 39.7942246,13.1845347 49.4970636,13.1845347 C59.2024195,13.1845347 68.3188093,16.9649924 75.1925975,23.8236788 C89.3487585,37.9932636 89.3495975,61.0443229 75.1749788,75.2306873" id="Fill-169" fill="#FFFFFE"></path>
                    <path d="M75.1749788,75.2306873 C68.3188093,82.0969246 59.1898347,85.8689924 49.4853178,85.8689924 C39.774928,85.8689924 30.6526653,82.0893737 23.7914619,75.2306873 C9.61936017,61.0611025 9.61936017,38.0083653 23.7914619,23.8396195 C30.6576992,16.9649924 39.7942246,13.1845347 49.4970636,13.1845347 C59.2024195,13.1845347 68.3188093,16.9649924 75.1925975,23.8236788 C89.3487585,37.9932636 89.3495975,61.0443229 75.1749788,75.2306873 M84.3870127,14.6284246 C75.0633941,5.30061102 62.6825212,0.173585593 49.4970636,0.173585593 C36.3124449,0.173585593 23.9147924,5.30061102 14.5844619,14.6275856 C-4.66180932,33.8721788 -4.66180932,65.1813483 14.5844619,84.4251025 C23.9089195,93.7537551 36.2948263,98.8874924 49.4853178,98.8874924 C62.6674195,98.8874924 75.0633941,93.7537551 84.3870127,84.4251025 C103.613987,65.1662466 103.629928,33.8562381 84.3870127,14.6284246" id="Fill-179" fill="#000000"></path>
                    <path d="M52.2660432,80.0438492 C50.3691025,80.0438492 48.8312466,78.5059932 48.8312466,76.6098915 C48.8312466,74.7129508 50.3691025,73.1750949 52.2660432,73.1750949 C57.8452805,73.1750949 63.0830517,71.0071627 67.0145263,67.0689763 C70.9493568,63.1299508 73.118128,57.8888237 73.1198059,52.3104254 C73.1206449,50.4143237 74.6585008,48.8781458 76.5546025,48.8781458 L76.5554415,48.8781458 C78.4532212,48.8789847 79.9902381,50.4168407 79.9893992,52.3137814 C79.9852042,59.7245186 77.1032975,66.688078 71.8747551,71.9224932 C66.6462127,77.1594254 59.6818144,80.0438492 52.2660432,80.0438492" id="Fill-181" fill="#000000"></path>
                </g>
                <g id="shadow" opacity="0.233003162">
                    <mask id="mask-5" fill="white">
                        <use xlink:href="#path-4"></use>
                    </mask>
                    <g id="Clip-167"></g>
                    <path d="M412.332196,0.61804888 C402.214912,0.380272912 318.983206,-0.749584521 261.731475,24.5777719 C233.557552,37.0390876 204.4418,60.6994827 178.72321,86.7587169 C132.013723,82.576558 83.8556578,98.355776 48.1015723,134.109862 C14.180554,168.032566 -1.76139715,213.120623 0.268973523,257.544257 C20.6148391,233.102236 51.2744481,217.518635 85.5673075,217.518635 C87.5639511,217.520322 89.5471039,217.582717 91.5142363,217.678839 C86.5799633,237.740554 85.1322281,256.835988 84.7291894,267.847882 C178.885943,211.887898 299.347295,125.432725 412.332196,0.61804888" id="Fill-166" fill="url(#linearGradient-6)" mask="url(#mask-5)"></path>
                </g>
                <path d="M413.351934,0.645536456 C413.351934,0.645536456 322.772781,-2.42615804 261.731812,24.5782778 C233.557889,37.0387503 204.441295,60.6991454 178.722704,86.7583796 C132.01406,82.5762208 83.8559951,98.3562819 48.1010664,134.110367 C14.1808912,168.032229 -1.76105988,213.120286 0.269310794,257.544763 C20.6151764,233.101899 51.2739422,217.518298 85.5676448,217.518298 C87.5634452,217.519985 89.5474411,217.58238 91.5145735,217.678502 C86.2902477,238.923194 84.9706754,259.096209 84.6662884,269.719398 C113.98103,276.965663 137.050358,300.034147 144.288191,329.347202 C154.921498,329.037756 175.087767,327.725773 196.3274,322.494701 C196.431111,324.460991 196.486761,326.4433 196.486761,328.427296 C196.486761,362.724371 180.914965,393.392412 156.459453,413.731532 C200.887303,415.773708 245.982105,399.823325 279.903967,365.909052 C315.658052,330.154966 331.434741,282.00449 327.245836,235.290787 C353.302541,209.56798 376.973897,180.453072 389.433527,152.275777 C416.436276,91.23818 413.351934,0.645536456 413.351934,0.645536456 Z" id="Stroke-171" stroke="#000000" stroke-width="16.374" stroke-linecap="round" stroke-linejoin="round"></path>
            </g>
            <g id="propulsion" transform="translate(7.000000, 287.000000)">
                <path d="M68.3789615,0.489881944 C68.3789615,0.489881944 46.5338077,74.460375 0.1265,120.54709 C46.5338077,74.460375 120.517269,52.2661181 120.517269,52.2661181 C120.517269,52.2661181 117.8705,34.5581042 102.0415,18.8381875 C86.2099615,3.11827083 68.3789615,0.489881944 68.3789615,0.489881944" id="Fill-173" fill="#000000"></path>
                <mask id="mask-8" fill="white">
                    <use xlink:href="#path-7"></use>
                </mask>
                <g id="Clip-177"></g>
                <path d="M37.2603846,83.4605903 C64.3863846,56.5254861 106.310769,44.8582292 106.310769,44.8582292 C106.310769,44.8582292 103.271385,35.9949792 94.0178462,26.8057014 C84.7643077,17.6155833 75.8382308,14.5981458 75.8382308,14.5981458 C75.8382308,14.5981458 64.3863846,56.5254861 37.2603846,83.4605903" id="Fill-176" fill="url(#linearGradient-9)" mask="url(#mask-8)"></path>
            </g>
        </g>
    </g>
</svg>
