<svg width="124" height="48" fill="none" xmlns="http://www.w3.org/2000/svg">
  <path d="M48.503 24c0-13.255-10.745-24-24-24s-24 10.745-24 24 10.745 24 24 24 24-10.745 24-24z" fill="#1B89FF"/>
  <path d="M32.678 12.22H16.325a3.834 3.834 0 00-3.823 3.824v16.355a3.833 3.833 0 003.823 3.823H32.68a3.833 3.833 0 003.822-3.823V16.044a3.833 3.833 0 00-3.824-3.824zM18.725 22.582V21.36H17.5a.215.215 0 01-.215-.215v-1a.215.215 0 01.215-.215h1.222v-1.22a.215.215 0 01.215-.215h1a.215.215 0 01.215.215v1.221h1.222a.215.215 0 01.215.215v1a.215.215 0 01-.215.215h-1.207v1.222a.215.215 0 01-.215.215h-1a.215.215 0 01-.228-.215zm4.47 8.833a7.153 7.153 0 01-4.112-1.291.087.087 0 01-.031-.1.085.085 0 01.02-.032l.911-.912a.087.087 0 01.107-.011 5.752 5.752 0 008.655-3.334.087.087 0 01.09-.07h1.302a.087.087 0 01.084.105 7.189 7.189 0 01-7.028 5.65l.002-.005zM31.66 21.14a.215.215 0 01-.215.215h-3.882a.215.215 0 01-.215-.215v-1a.215.215 0 01.215-.215h3.88a.215.215 0 01.215.215v1h.002z" fill="#fff"/>
</svg>
