<svg width="124" height="48" fill="none" xmlns="http://www.w3.org/2000/svg">
  <path d="M123.89 33.212c-.497.388-1.837 1.226-3.76 1.226h-.087c-4.171 0-6.764-2.688-6.764-7.097V12.545c0-.107.043-.215.195-.28.151-.064 3.479-1.612 3.63-1.677.152-.064.26 0 .26.15v5.57h4.819c.108 0 .195.087.195.194v3.441a.194.194 0 01-.195.194h-4.819v7.204c0 1.914 1.102 3.205 2.788 3.226h.043c.951 0 1.902-.387 2.269-.537.086-.043.194 0 .238.086l1.253 2.839c.065.086.022.172-.065.258zM75.63 9.736h-3.718a.193.193 0 00-.194.194v7.72a9.218 9.218 0 00-5.122-1.548c-5.079 0-9.207 4.108-9.207 9.162 0 5.075 4.128 9.161 9.207 9.161a9.27 9.27 0 005.122-1.548v1.14c0 .107.086.193.194.193h3.717a.193.193 0 00.195-.193V9.93c-.022-.108-.108-.194-.195-.194zm-3.912 15.55a5.116 5.116 0 01-5.122 5.075c-2.832 0-5.122-2.28-5.122-5.097 0-2.818 2.29-5.097 5.122-5.097 2.81 0 5.1 2.258 5.122 5.075v.043zm10.805-8.977h-3.695a.193.193 0 00-.195.193V34.03c0 .107.087.194.195.194h3.717a.193.193 0 00.194-.194V16.502c-.021-.107-.108-.193-.216-.193zm27.641 0h-3.717a.194.194 0 00-.195.193V34.03c0 .107.087.194.195.194h3.717a.193.193 0 00.194-.194V16.502a.193.193 0 00-.194-.193zm0-6.579h-3.717a.194.194 0 00-.195.194v3.44c0 .108.087.194.195.194h3.717a.193.193 0 00.194-.193V9.924a.193.193 0 00-.194-.194zm-27.641 0h-3.695a.193.193 0 00-.195.194v3.44c0 .108.087.194.195.194h3.717a.193.193 0 00.194-.193V9.924c-.021-.108-.108-.194-.216-.194zm20.833 18.496V16.505c-.022-.108-.108-.194-.216-.194h-3.718a.193.193 0 00-.194.194v1.14a9.272 9.272 0 00-5.122-1.549c-5.1 0-9.206 4.108-9.206 9.162 0 5.075 4.127 9.161 9.206 9.161 1.88 0 3.674-.559 5.122-1.527l4.128-4.667zm-9.207 2.129c-2.83 0-5.122-2.28-5.122-5.097 0-2.818 2.291-5.097 5.122-5.097s5.122 2.28 5.122 5.097c-.022 2.817-2.312 5.097-5.122 5.097z" fill="#ffffff"/>
  <path d="M94.154 41.947c-3.242 0-7.067-1.764-8.731-5.119-.065-.129 0-.28.13-.344l2.81-1.312c.15-.064.28 0 .345.108.95 1.355 2.442 3.054 5.446 3.032 3.674-.043 5.23-2.946 5.23-5.441v-3.785l3.976-.86v4.215c0 6.258-4.3 9.506-9.206 9.506z" fill="#0B1622"/><path d="M48.503 24c0-13.255-10.745-24-24-24s-24 10.745-24 24 10.745 24 24 24 24-10.745 24-24z" fill="#1B89FF"/><path d="M32.678 12.22H16.325a3.834 3.834 0 00-3.823 3.824v16.355a3.833 3.833 0 003.823 3.823H32.68a3.833 3.833 0 003.822-3.823V16.044a3.833 3.833 0 00-3.824-3.824zM18.725 22.582V21.36H17.5a.215.215 0 01-.215-.215v-1a.215.215 0 01.215-.215h1.222v-1.22a.215.215 0 01.215-.215h1a.215.215 0 01.215.215v1.221h1.222a.215.215 0 01.215.215v1a.215.215 0 01-.215.215h-1.207v1.222a.215.215 0 01-.215.215h-1a.215.215 0 01-.228-.215zm4.47 8.833a7.153 7.153 0 01-4.112-1.291.087.087 0 01-.031-.1.085.085 0 01.02-.032l.911-.912a.087.087 0 01.107-.011 5.752 5.752 0 008.655-3.334.087.087 0 01.09-.07h1.302a.087.087 0 01.084.105 7.189 7.189 0 01-7.028 5.65l.002-.005zM31.66 21.14a.215.215 0 01-.215.215h-3.882a.215.215 0 01-.215-.215v-1a.215.215 0 01.215-.215h3.88a.215.215 0 01.215.215v1h.002z" fill="#fff"/></svg>
