<?xml version="1.0" encoding="UTF-8"?>
<svg width="48px" height="38px" viewBox="0 0 48 38" version="1.1" xmlns="http://www.w3.org/2000/svg" xmlns:xlink="http://www.w3.org/1999/xlink">
    <title>e</title>
    <g id="Page-1" stroke="none" stroke-width="1" fill="none" fill-rule="evenodd">
        <g id="e" transform="translate(0.372000, 0.788410)" fill="#FFFFFF">
            <circle id="Oval" cx="42.628" cy="31.2115898" r="4"></circle>
            <path d="M18.4467135,36.2115898 C20.462308,36.2115898 22.5636725,35.8130261 24.750807,35.0158986 C26.9379415,34.2187712 28.7391111,33.2169758 30.1543158,32.0105126 C30.6689357,31.5796329 30.9155244,31.0625773 30.8940819,30.4593457 C30.8726394,29.8561141 30.5831657,29.2959705 30.0256608,28.7789148 C29.5968109,28.434211 29.082191,28.2726311 28.4818012,28.2941751 C27.8814113,28.3157191 27.3453489,28.520387 26.873614,28.9081787 C25.9301442,29.7268502 24.6757583,30.4054857 23.1104561,30.9440854 C21.545154,31.482685 19.9905731,31.7519848 18.4467135,31.7519848 C15.873614,31.7519848 13.6007096,31.1702972 11.628,30.006922 C9.65529045,28.8435468 8.10070955,27.2492918 6.96425731,25.2241572 C6.09006328,23.6663613 5.55209772,21.9300945 5.35036064,20.0153569 L5.33615929,19.8597047 L31.3122105,19.8597047 C31.9126004,19.8597047 32.4144888,19.7030059 32.8178757,19.3896082 L32.9847251,19.2457012 C33.413575,18.8363654 33.628,18.2869938 33.628,17.5975863 C33.628,14.2367245 32.9632827,11.2421105 31.633848,8.61374424 C30.3044133,5.98537799 28.4281949,3.92792737 26.005193,2.44139236 C23.582191,0.954857348 20.7410604,0.211589844 17.4818012,0.211589844 C14.1796569,0.211589844 11.2634776,0.987173327 8.73326316,2.53834029 C6.20304873,4.08950726 4.21961793,6.21158984 2.78297076,8.90458805 C1.34632359,11.5975863 0.628,14.7106922 0.628,18.2439058 C0.628,21.7340315 1.38920858,24.8363654 2.91162573,27.5509076 C4.43404288,30.2654498 6.53540741,32.3875324 9.2157193,33.9171554 C11.8960312,35.4467784 14.9730292,36.2115898 18.4467135,36.2115898 Z M28.981105,15.7232595 L5.42805569,15.7232595 L5.4832026,15.3402482 C5.69191801,14.0454419 6.04673421,12.8349632 6.5476512,11.7088119 L6.77127485,11.2313385 C7.77907212,9.18465986 9.20499805,7.57963293 11.0490526,6.41625771 C12.8931072,5.25288248 15.0373567,4.67119487 17.4818012,4.67119487 C19.8833606,4.67119487 21.9525614,5.2313385 23.6894035,6.35162575 C25.4262456,7.471913 26.7664016,9.02307997 27.7098713,11.0051266 C28.3388512,12.3264911 28.7486411,13.7627568 28.9392411,15.3139238 L28.981105,15.7232595 Z" fill-rule="nonzero"></path>
        </g>
    </g>
</svg>