<svg width="16" height="16" xmlns="http://www.w3.org/2000/svg">
  <g fill="none" fill-rule="evenodd">
    <path d="M2.608.49V.467a.078.078 0 01-.013.023h.013z" fill="#999999"/>
    <path d="M14.999 0H1a1 1 0 00-1 1V15.002C0 15.554.448 16 1 16H14.999c.553 0 1-.446 1-.998V.999a1 1 0 00-1-.999zm-1.291 12.968h-2.254V9.374c0-.904-.258-1.52-1.072-1.52-.624 0-.996.416-1.158.815-.06.144-.074.347-.074.547v3.75H6.823s.029-6.278 0-6.909h2.326v.953c.3-.458.834-1.11 2.033-1.11 1.482 0 2.525 1.154 2.525 3.216v3.852h.001zm-9.635-9.92c.693 0 1.119.501 1.133 1.156 0 .643-.439 1.156-1.146 1.156h-.012c-.681 0-1.119-.514-1.119-1.156 0-.655.451-1.156 1.144-1.156zm1.261 3.036v6.883H3.048V6.084h2.286z" fill="#999999" fill-rule="nonzero"/>
  </g>
</svg>
