<svg width="16" height="14" xmlns="http://www.w3.org/2000/svg">
  <g fill="none" fill-rule="evenodd">
    <path d="M2.609.023V0a.078.078 0 01-.013.023h.013z" fill="#FFFFFF"/>
    <path d="M16 2.072a6.603 6.603 0 01-1.887.519A3.301 3.301 0 0015.558.775a6.65 6.65 0 01-2.084.797A3.284 3.284 0 007.88 4.566a9.327 9.327 0 01-6.766-3.43 3.283 3.283 0 001.015 4.38 3.27 3.27 0 01-1.487-.411v.042a3.285 3.285 0 002.633 3.219 3.281 3.281 0 01-1.482.056 3.281 3.281 0 003.066 2.279A6.582 6.582 0 010 12.06a9.287 9.287 0 005.032 1.476c6.038 0 9.34-5.002 9.34-9.341 0-.143-.003-.284-.009-.426A6.62 6.62 0 0016 2.072z" fill="#FFFFFF"/>
  </g>
</svg>
